<svg width="220" height="129" viewBox="0 0 220 129" fill="none" xmlns="http://www.w3.org/2000/svg">
<g id="Group 4202">
<g id="Group 4203">
<path id="Vector" d="M210.742 81.2809H73.6593C69.2116 81.2809 65.5605 84.932 65.5605 89.3797V116.265C65.5605 120.713 69.2116 124.364 73.6593 124.364H210.742C215.19 124.364 218.842 120.713 218.842 116.265V89.3797C218.842 84.932 215.19 81.2809 210.742 81.2809Z" fill="#33353D"/>
<path id="Vector_2" d="M211.407 80.6168H74.3233C69.8756 80.6168 66.2245 84.268 66.2245 88.7157V115.601C66.2245 120.049 69.8756 123.7 74.3233 123.7H211.407C215.855 123.7 219.505 120.049 219.505 115.601V88.7157C219.505 84.268 215.855 80.6168 211.407 80.6168Z" fill="#4E5159"/>
<path id="Vector_3" d="M211.407 124.033H74.3235C69.6766 124.033 65.8927 120.249 65.8927 115.602V88.7162C65.8927 84.0694 69.6766 80.2854 74.3235 80.2854H211.407C216.053 80.2854 219.837 84.0694 219.837 88.7162V115.602C219.837 120.249 216.053 124.033 211.407 124.033ZM74.3235 80.9493C70.0086 80.9493 66.5566 84.4677 66.5566 88.7162V115.602C66.5566 119.917 70.0749 123.369 74.3235 123.369H211.407C215.722 123.369 219.174 119.85 219.174 115.602V88.7162C219.174 84.4012 215.655 80.9493 211.407 80.9493H74.3235Z" fill="#33353D"/>
<path id="Vector_4" d="M199.59 95.1557H122.983C122.584 95.1557 122.319 94.8901 122.319 94.4918C122.319 94.0935 122.584 93.828 122.983 93.828H199.59C199.988 93.828 200.254 94.0935 200.254 94.4918C200.254 94.8901 199.922 95.1557 199.59 95.1557Z" fill="#808594"/>
<path id="Vector_5" d="M187.309 102.857H122.983C122.584 102.857 122.319 102.591 122.319 102.193C122.319 101.795 122.584 101.529 122.983 101.529H187.309C187.707 101.529 187.973 101.795 187.973 102.193C187.973 102.591 187.641 102.857 187.309 102.857Z" fill="#808594"/>
<path id="Vector_6" d="M174.364 110.491H122.983C122.584 110.491 122.319 110.226 122.319 109.827C122.319 109.429 122.584 109.163 122.983 109.163H174.364C174.762 109.163 175.028 109.429 175.028 109.827C175.028 110.226 174.696 110.491 174.364 110.491Z" fill="#808594"/>
<path id="Vector_7" d="M97.4919 114.208C104.128 114.208 109.507 108.828 109.507 102.192C109.507 95.5564 104.128 90.1769 97.4919 90.1769C90.8559 90.1769 85.4763 95.5564 85.4763 102.192C85.4763 108.828 90.8559 114.208 97.4919 114.208Z" fill="#489A4D"/>
<path id="Vector_8" d="M94.7691 107.902C94.5036 107.902 94.2381 107.836 94.0389 107.636L89.9895 103.587C89.5912 103.189 89.5912 102.591 89.9895 102.193C90.3878 101.795 90.9853 101.795 91.3836 102.193L94.7691 105.579L103.598 96.7494C103.997 96.3511 104.594 96.3511 104.992 96.7494C105.391 97.1477 105.391 97.7451 104.992 98.1434L95.4994 107.636C95.2338 107.836 95.0347 107.902 94.7691 107.902Z" fill="white"/>
</g>
<g id="Group 4204">
<path id="Vector_9" d="M0.299618 102.312C0.299618 106.175 1.11706 109.848 2.61207 113.14C4.1366 116.513 6.34027 119.506 9.05989 121.954C9.49502 122.335 9.93018 122.716 10.3933 123.069C14.8814 126.606 20.5398 128.7 26.6892 128.7C35.2848 128.7 42.9028 124.593 47.7453 118.254C51.1191 113.82 53.1052 108.297 53.1052 102.312C53.1052 87.7305 41.271 75.8964 26.6892 75.8964C12.1074 75.8964 0.299618 87.7305 0.299618 102.312Z" fill="#4E5159"/>
<path id="Vector_10" d="M26.7144 129C35.1219 129 42.8752 125.137 47.9616 118.444C51.4987 113.765 53.376 108.216 53.376 102.339C53.376 87.6215 41.405 75.6515 26.688 75.6515C11.9695 75.6515 4.57764e-05 87.6215 4.57764e-05 102.339C4.57764e-05 106.148 0.789497 109.848 2.3389 113.276C3.86344 116.676 6.06711 119.696 8.86909 122.199C9.30423 122.58 9.76579 122.96 10.2289 123.341C14.9906 127.04 20.6753 129 26.7144 129ZM26.7144 76.1955C41.1331 76.1955 52.8585 87.9208 52.8585 102.339C52.8585 108.107 51.0356 113.548 47.5545 118.118C42.5752 124.702 34.9852 128.456 26.7144 128.456C20.8121 128.456 15.2345 126.524 10.5832 122.879C10.1201 122.525 9.68498 122.144 9.24985 121.763C6.50226 119.315 4.35298 116.377 2.85642 113.031C1.33343 109.657 0.57193 106.039 0.57193 102.312C0.57193 87.9208 12.2958 76.1955 26.7144 76.1955Z" fill="#33353D"/>
<path id="Vector_11" d="M2.64218 113.14C4.16516 116.513 6.36882 119.506 9.09 121.954C9.52514 122.335 9.96026 122.716 10.4218 123.07C14.9115 126.606 20.5699 128.702 26.7178 128.702C35.3149 128.702 42.9313 124.593 47.7738 118.254V113.031C47.7738 110.637 44.9718 107.781 40.1293 107.563C38.308 107.481 36.2131 106.992 34.1726 106.475C34.0094 106.42 33.8183 106.393 33.6551 106.339C30.4444 105.495 27.4528 104.57 25.8211 104.843C24.6509 105.033 22.8279 105.278 20.6507 105.577C20.4331 105.604 20.2156 105.632 19.9716 105.659C17.2504 106.012 14.0677 106.42 10.9937 106.883C6.01605 107.59 3.92117 110.365 2.64218 113.14Z" fill="#514984"/>
<path id="Vector_12" d="M19.9403 105.631L26.5249 112.351C26.5793 112.405 26.6337 112.432 26.7145 112.432C26.7969 112.432 26.8513 112.405 26.9056 112.351L30.1692 109.114L33.1623 111.671C33.2431 111.725 33.3519 111.752 33.4343 111.725C33.5166 111.698 33.5974 111.589 33.5974 111.508L34.115 106.475C33.9518 106.42 33.7606 106.393 33.5974 106.339L33.1079 110.936L30.3324 108.542C30.2236 108.461 30.0604 108.461 29.9796 108.542L26.7145 111.78L20.621 105.55C20.4034 105.577 20.1859 105.604 19.9403 105.631Z" fill="#3B336C"/>
<path id="Vector_13" d="M31.286 123.505C31.4491 123.505 31.5579 123.396 31.5579 123.233V111.644C31.5579 111.48 31.4491 111.372 31.286 111.372C31.1228 111.372 31.014 111.48 31.014 111.644V123.233C31.014 123.396 31.1228 123.505 31.286 123.505Z" fill="#3B336C"/>
<path id="Vector_14" d="M29.8458 112.214C29.6204 112.214 29.4371 112.032 29.4371 111.806C29.4371 111.581 29.6204 111.398 29.8458 111.398C30.0711 111.398 30.253 111.581 30.253 111.806C30.253 112.032 30.0711 112.214 29.8458 112.214Z" fill="#3B336C"/>
<path id="Vector_15" d="M29.8458 115.125C29.6204 115.125 29.4371 114.942 29.4371 114.717C29.4371 114.492 29.6204 114.309 29.8458 114.309C30.0711 114.309 30.253 114.492 30.253 114.717C30.253 114.942 30.0711 115.125 29.8458 115.125Z" fill="#3B336C"/>
<path id="Vector_16" d="M9.08606 118.826V121.954C9.5212 122.335 9.95635 122.716 10.4179 123.07C9.92838 121.845 9.43883 119.805 9.22127 118.771C9.19485 118.744 9.08606 118.744 9.08606 118.826Z" fill="#3B336C"/>
<path id="Vector_17" d="M23.2628 93.4965C23.4804 93.6871 23.5892 93.959 23.5892 94.2583V104.678C23.5892 104.977 23.7523 105.276 23.9963 105.439L28.1317 108.214C28.9755 108.786 30.1178 108.677 30.8529 107.942L32.4038 106.392C32.5934 106.201 32.7022 105.929 32.6758 105.684L32.567 101.413C32.567 101.386 32.567 101.359 32.567 101.331C32.5934 100.978 32.7846 100.651 33.0829 100.434C36.4568 98.3118 36.2657 95.4553 36.2657 94.4487V88.0012C36.2657 87.6203 35.8849 87.3211 35.5042 87.4299C31.8319 88.5453 27.6965 86.913 26.0912 86.1784C25.7648 86.0424 25.4121 86.2602 25.4121 86.5865C25.3577 87.9196 25.0857 89.7696 24.9225 90.8305C24.8666 91.2114 24.4314 91.4018 24.1051 91.2114C23.4524 90.8305 22.5277 90.4496 22.2558 91.2114C22.0102 92.1091 22.7997 93.034 23.2628 93.4965Z" fill="#F7A197"/>
<path id="Vector_18" d="M35.8285 91.3749C35.9109 91.3749 35.9653 91.3475 36.0197 91.2931C36.1285 91.1843 36.1285 91.0211 36.0197 90.9124C35.5022 90.4227 34.2511 89.6881 33.2721 90.5043C33.1633 90.613 33.1353 90.7762 33.2441 90.8852C33.3529 90.9939 33.5176 91.0211 33.6264 90.9124C34.4687 90.1778 35.5845 91.2387 35.6389 91.2931C35.6933 91.3475 35.7741 91.3749 35.8285 91.3749Z" fill="#192A2C"/>
<path id="Vector_19" d="M28.3213 91.3756C28.3757 91.3756 28.4301 91.3484 28.4845 91.3212C29.7355 90.369 30.4706 90.9675 30.4706 90.9675C30.5793 91.0763 30.769 91.0491 30.8513 90.9403C30.9321 90.8315 30.9321 90.641 30.8233 90.5594C30.7689 90.5322 29.7355 89.689 28.1581 90.9131C28.0493 90.9947 28.0214 91.1852 28.1037 91.294C28.1581 91.3212 28.2389 91.3756 28.3213 91.3756Z" fill="#192A2C"/>
<path id="Vector_20" d="M22.3102 91.2389C22.5821 90.4773 23.5068 90.831 24.1595 91.2389C24.4859 91.4294 24.921 91.2389 24.9754 90.8582C25.1386 89.7972 25.4105 87.9201 25.4649 86.6142C25.4929 86.2605 25.8472 86.0429 26.1456 86.2061C27.723 86.9407 31.8584 88.5729 35.5586 87.4576C35.9393 87.3488 36.3201 87.6479 36.3201 88.0288V92.4904C37.6535 92.5448 37.6255 88.7361 37.5711 87.4576C37.5711 87.2126 37.6799 86.9679 37.871 86.8045C39.9115 84.9547 40.9186 79.813 33.3005 81.4182C33.055 81.4725 32.811 81.4454 32.5655 81.3636C26.3088 78.9969 24.1875 82.0982 23.6156 83.2952C23.5068 83.5401 23.2893 83.7576 23.0437 83.8666C19.0995 85.5532 21.9015 95.2381 23.6156 96.8976V94.286C23.6156 94.0139 23.5068 93.7419 23.2892 93.5242C22.7997 93.0345 22.0102 92.1095 22.3102 91.2389Z" fill="#192A2C"/>
<path id="Vector_21" d="M23.5877 99.0749V104.652C23.5877 104.951 23.7509 105.25 23.9949 105.413L28.1302 108.188C28.9741 108.76 30.1163 108.651 30.8514 107.916L32.4024 106.366C32.592 106.175 32.7007 105.903 32.6743 105.658L32.5655 101.387C32.5655 101.36 32.5655 101.333 32.5655 101.306C31.1498 101.224 26.4705 100.87 23.5877 99.0749Z" fill="#F7A197"/>
<path id="Vector_22" d="M32.6999 105.658C32.6999 105.658 30.3874 105.822 27.1239 99.4014C27.0415 99.2109 27.2327 99.0205 27.3959 99.1565C28.2117 99.7278 29.8171 100.626 32.5911 101.415L32.6999 105.658Z" fill="#ED8B7F"/>
</g>
<path id="Vector_23" d="M145.182 5.62988H8.09887C3.65114 5.62988 0 9.28099 0 13.7287V40.6142C0 45.062 3.65114 48.7131 8.09887 48.7131H145.182C149.629 48.7131 153.281 45.062 153.281 40.6142V13.7287C153.281 9.28099 149.629 5.62988 145.182 5.62988Z" fill="#33353D"/>
<path id="Vector_24" d="M145.846 4.96597H8.76286C4.31515 4.96597 0.664032 8.6171 0.664032 13.0648V39.9505C0.664032 44.3982 4.31515 48.0493 8.76286 48.0493H145.846C150.294 48.0493 153.945 44.3982 153.945 39.9505V13.0648C153.945 8.6171 150.294 4.96597 145.846 4.96597Z" fill="#4E5159"/>
<path id="Vector_25" d="M145.847 48.3817H8.76349C4.11663 48.3817 0.332733 44.5978 0.332733 39.951V13.0654C0.332733 8.41856 4.11663 4.63457 8.76349 4.63457H145.847C150.493 4.63457 154.277 8.41856 154.277 13.0654V39.951C154.277 44.5978 150.493 48.3817 145.847 48.3817ZM8.76349 5.29846C4.44857 5.29846 0.996583 8.81687 0.996583 13.0654V39.951C0.996583 44.2659 4.51494 47.7179 8.76349 47.7179H145.847C150.162 47.7179 153.614 44.1995 153.614 39.951V13.0654C153.614 8.75035 150.095 5.29846 145.847 5.29846H8.76349Z" fill="#33353D"/>
<path id="Vector_26" d="M134.03 19.5047H57.4226C57.0243 19.5047 56.7587 19.2391 56.7587 18.8408C56.7587 18.4425 57.0243 18.177 57.4226 18.177H134.03C134.428 18.177 134.694 18.4425 134.694 18.8408C134.694 19.2391 134.362 19.5047 134.03 19.5047Z" fill="#808594"/>
<path id="Vector_27" d="M121.749 27.2058H57.4226C57.0243 27.2058 56.7587 26.9403 56.7587 26.5419C56.7587 26.1436 57.0243 25.8782 57.4226 25.8782H121.749C122.147 25.8782 122.413 26.1436 122.413 26.5419C122.413 26.9403 122.081 27.2058 121.749 27.2058Z" fill="#808594"/>
<path id="Vector_28" d="M108.804 34.8404H57.4226C57.0243 34.8404 56.7587 34.5748 56.7587 34.1765C56.7587 33.7782 57.0243 33.5128 57.4226 33.5128H108.804C109.202 33.5128 109.468 33.7782 109.468 34.1765C109.468 34.5748 109.136 34.8404 108.804 34.8404Z" fill="#808594"/>
<path id="Vector_29" d="M31.9314 38.5569C38.5674 38.5569 43.947 33.1773 43.947 26.5413C43.947 19.9054 38.5674 14.5259 31.9314 14.5259C25.2954 14.5259 19.9158 19.9054 19.9158 26.5413C19.9158 33.1773 25.2954 38.5569 31.9314 38.5569Z" fill="#489A4D"/>
<path id="Vector_30" d="M29.2097 32.2508C28.9441 32.2508 28.6786 32.1845 28.4794 31.9852L24.43 27.9358C24.0317 27.5375 24.0317 26.9401 24.43 26.5418C24.8283 26.1435 25.4258 26.1435 25.8241 26.5418L29.2097 29.9273L37.9724 21.0319C38.3707 20.6335 38.9681 20.6335 39.3664 21.0319C39.7647 21.4302 39.7647 22.0277 39.3664 22.426L29.8736 31.9189C29.6743 32.1845 29.4753 32.2508 29.2097 32.2508Z" fill="white"/>
<path id="Vector_31" d="M219.076 26.6632C219.076 31.2845 217.904 35.6291 215.817 39.3986C213.666 43.3174 210.556 46.6183 206.788 49.0035C206.084 49.4508 205.339 49.8768 204.593 50.26C200.994 52.0916 196.927 53.1352 192.604 53.1352C188.131 53.1352 183.935 52.0277 180.252 50.0684C179.57 49.7063 178.909 49.323 178.271 48.9184C177.95 48.7053 177.61 48.4924 177.312 48.2582C177.015 48.0451 176.737 47.8322 176.44 47.6192C174.416 46.0646 172.628 44.2117 171.136 42.1459C167.984 37.8014 166.153 32.456 166.153 26.6632C166.153 12.0536 177.994 0.191246 192.624 0.191246C207.255 0.191246 219.076 12.0536 219.076 26.6632Z" fill="#4E5159"/>
<path id="Vector_32" d="M192.625 53.3484C188.28 53.3484 183.978 52.2836 180.166 50.2603C179.484 49.8984 178.825 49.515 178.165 49.0891C177.803 48.8549 177.483 48.6418 177.184 48.4289C176.866 48.1945 176.567 47.9816 176.312 47.79C174.267 46.214 172.478 44.3611 170.966 42.2742C167.665 37.7166 165.94 32.3285 165.94 26.6849C165.94 11.9688 177.908 0 192.625 0C207.341 0 219.31 11.9688 219.31 26.6849C219.31 31.1784 218.18 35.6294 216.009 39.5269C213.859 43.4455 210.705 46.789 206.915 49.1955C206.191 49.6428 205.446 50.0687 204.7 50.4521C200.952 52.3688 196.885 53.3484 192.625 53.3484ZM192.625 0.404679C178.143 0.404679 166.366 12.1817 166.366 26.6636C166.366 32.222 168.07 37.5249 171.328 42.0185C172.797 44.063 174.566 45.8945 176.589 47.4492C176.844 47.6408 177.12 47.8539 177.441 48.0881C177.739 48.3011 178.037 48.514 178.399 48.7482C179.038 49.1529 179.699 49.5576 180.358 49.8984C184.106 51.8789 188.344 52.9225 192.625 52.9225C196.82 52.9225 200.825 51.9641 204.529 50.0687C205.275 49.6854 206 49.2807 206.702 48.8336C210.429 46.4695 213.517 43.1685 215.647 39.2925C217.755 35.4591 218.884 31.072 218.884 26.6636C218.863 12.1817 207.086 0.404679 192.625 0.404679Z" fill="#33353D"/>
<path id="Vector_33" d="M215.817 39.3991C213.666 43.3176 210.556 46.6186 206.788 49.0038C206.084 49.4511 205.339 49.8771 204.593 50.2604C200.994 52.0919 196.927 53.1355 192.604 53.1355C188.131 53.1355 183.935 52.028 180.252 50.0687C179.57 49.7067 178.909 49.3233 178.27 48.9187C177.952 48.7058 177.61 48.4927 177.313 48.2585C177.015 48.0456 176.738 47.8325 176.44 47.6196C176.504 43.2325 176.695 34.9481 177.333 33.4998C177.759 32.5202 179.122 31.3276 180.869 30.3266C182.637 29.3043 184.766 28.4738 186.746 28.2182C186.959 28.1969 187.194 28.1756 187.429 28.1543C187.578 28.133 187.705 28.133 187.854 28.1117C190.921 27.8775 195.734 28.0479 200.546 28.8145C200.739 28.8358 200.952 28.8784 201.143 28.9209C202.826 29.1979 204.508 29.56 206.105 30.0071C209.961 31.0719 212.388 33.3082 213.922 35.6082C214.794 36.9073 215.391 38.2491 215.817 39.3991Z" fill="#4167F3"/>
<path id="Vector_34" d="M180.252 50.0691C179.571 49.707 178.911 49.3238 178.272 48.9191C178.272 47.1302 178.25 44.3191 178.25 41.4013C178.292 41.5505 179.251 46.9811 180.252 50.0691Z" fill="#3153D0"/>
<path id="Vector_35" d="M206.81 49.0259C206.106 49.4731 205.361 49.899 204.615 50.2823C205.51 47.6202 206.319 42.3386 206.319 42.3386C206.617 43.0841 206.746 47.173 206.81 49.0259Z" fill="#3153D0"/>
<path id="Vector_36" d="M201.123 28.9007L191.092 36.0138C191.05 36.0351 191.008 36.0564 190.964 36.0564C190.943 36.0564 190.923 36.0564 190.923 36.0564C190.859 36.0351 190.815 35.9925 190.773 35.9499L189.431 33.4368L187.451 35.098C187.387 35.1619 187.302 35.1619 187.216 35.1193C187.131 35.0767 187.089 35.0128 187.089 34.9277L187.387 28.1552C187.536 28.1339 187.664 28.1339 187.813 28.1126L187.536 34.4591L189.347 32.947C189.389 32.9044 189.452 32.8831 189.516 32.9044C189.58 32.9257 189.623 32.9683 189.665 33.0109L191.008 35.5452L200.485 28.8368C200.719 28.8368 200.932 28.8794 201.123 28.9007Z" fill="#3153D0"/>
<path id="Vector_37" d="M189.537 41.8486C189.41 41.8486 189.325 41.7635 189.325 41.6357V38.5689C189.325 38.4412 189.41 38.356 189.537 38.356C189.665 38.356 189.75 38.4412 189.75 38.5689V41.6357C189.75 41.7422 189.645 41.8486 189.537 41.8486Z" fill="#3153D0"/>
<path id="Vector_38" d="M189.537 37.1635C189.713 37.1635 189.856 37.0203 189.856 36.8439C189.856 36.6676 189.713 36.5244 189.537 36.5244C189.36 36.5244 189.217 36.6676 189.217 36.8439C189.217 37.0203 189.36 37.1635 189.537 37.1635Z" fill="#3153D0"/>
<path id="Vector_39" d="M189.537 35.5238C189.713 35.5238 189.856 35.3807 189.856 35.2043C189.856 35.0279 189.713 34.8849 189.537 34.8849C189.36 34.8849 189.217 35.0279 189.217 35.2043C189.217 35.3807 189.36 35.5238 189.537 35.5238Z" fill="#3153D0"/>
<path id="Vector_40" d="M213.9 35.5864C212.345 33.3077 209.939 31.0714 206.083 29.9852C199.183 28.0686 190.665 27.7065 186.726 28.1963C184.744 28.452 182.615 29.2825 180.847 30.3047C180.57 22.8934 184.744 17.8461 186.469 16.0785C186.831 15.7164 186.789 15.1201 186.406 14.8008C184.127 12.9053 184.211 9.96637 184.277 7.6662C184.34 5.11069 187.747 2.25696 190.729 2.17164C193.71 2.08648 197.309 5.06811 197.309 5.06811C199.738 5.06811 201.994 7.36813 203.039 9.1996C204.082 11.0312 205.04 15.61 205.87 18.7193C206.702 21.8286 211.536 25.8325 213.176 29.2186C214.304 31.5825 214.113 34.202 213.9 35.5864Z" fill="#0C1E21"/>
<path id="Vector_41" d="M198.056 17.6542C197.949 17.7819 197.885 17.9309 197.885 18.1014V27.9405C197.885 28.2599 197.714 28.5368 197.459 28.7071L190.134 33.0091C189.963 33.1156 189.75 32.9878 189.772 32.7962L189.813 32.3489L190.474 24.5755C190.496 24.3413 190.325 24.1497 190.09 24.1284C186.789 23.8515 185.938 20.1884 185.938 19.5921C185.938 18.9532 185.959 15.8225 185.938 14.417C185.916 13.0114 185.938 10.8604 186.897 10.0086C187.855 9.15668 189.302 9.56136 190.006 10.5198C190.709 11.478 191.453 12.3299 192.221 13.2457C192.987 14.1614 195.351 14.3106 196.224 13.9911C197.097 13.6716 199.014 12.1809 199.867 13.5438C200.611 14.6512 198.651 16.9727 198.056 17.6542Z" fill="#F7A197"/>
<path id="Vector_42" d="M195.373 22.0412L189.816 32.3489L190.476 24.5754C190.476 24.5754 193.543 23.2764 195.16 21.892C195.289 21.7643 195.439 21.892 195.373 22.0412Z" fill="#ED8B7F"/>
<path id="Vector_43" d="M186.384 14.2267C186.364 14.2267 186.321 14.2053 186.299 14.184C186.257 14.1414 186.257 14.0775 186.299 14.0349C186.321 14.0349 187.407 13.034 188.322 13.8433C188.366 13.8859 188.366 13.9498 188.322 13.9923C188.28 14.0349 188.217 14.0349 188.173 13.9923C187.407 13.3109 186.47 14.1627 186.428 14.184C186.428 14.2053 186.406 14.2267 186.384 14.2267Z" fill="#0C1E21"/>
<path id="Vector_44" d="M192.518 14.2262C192.496 14.2262 192.476 14.2262 192.454 14.2049C191.262 13.353 190.516 14.0131 190.495 14.0344C190.453 14.077 190.389 14.077 190.346 14.0344C190.304 13.9919 190.304 13.928 190.346 13.8854C190.346 13.8854 191.241 13.0549 192.582 14.0344C192.625 14.077 192.646 14.141 192.604 14.1836C192.582 14.2049 192.562 14.2262 192.518 14.2262Z" fill="#0C1E21"/>
<path id="Vector_45" d="M180.124 24.3207C179.506 25.4922 178.334 27.6219 178.27 30.6459C178.228 32.0942 178.228 36.886 178.25 41.4221C178.25 44.3397 178.27 47.1509 178.27 48.9399C177.952 48.7269 177.61 48.514 177.313 48.2796C174.928 46.5972 172.84 44.5315 171.136 42.1462L172.713 30.1348C172.713 30.1348 171.243 29.7088 171.136 27.7283C171.03 25.769 171.008 23.5115 170.433 21.9355C169.858 20.3596 169.944 19.9549 170.264 19.7207C170.561 19.5291 171.201 19.9336 171.732 21.7865C171.732 21.8078 171.796 21.8078 171.776 21.7652C171.414 19.2308 171.583 17.6762 171.989 17.5484C172.415 17.4207 173.372 18.4642 173.543 21.2541C173.352 16.9095 173.883 16.5687 174.267 16.5049C174.629 16.441 175.353 17.7187 175.608 20.317C175.608 20.3808 175.694 20.3808 175.694 20.317C175.992 16.9308 176.609 17.0586 176.865 17.0586C177.142 17.0586 177.397 17.3781 177.504 19.2095C177.59 20.4873 177.739 22.3189 177.824 23.2773C177.845 23.5328 178.165 23.6606 178.334 23.4689C179.058 22.7662 180.421 21.5096 180.805 21.7226C181.358 21.9994 180.741 23.1494 180.124 24.3207Z" fill="#F7A197"/>
<path id="Vector_46" d="M174.182 29.4742C174.14 29.4742 174.096 29.4315 174.076 29.3889C173.969 28.8778 173.883 28.3667 173.905 27.8129C173.927 27.3871 174.033 26.7908 174.438 26.301C174.651 26.0666 174.928 25.875 175.183 25.7047C175.865 25.2574 176.545 24.8102 177.27 24.4055C175.737 24.576 174.16 24.7676 172.67 25.2361C172.606 25.2574 172.564 25.2149 172.542 25.1723C172.52 25.1082 172.564 25.0657 172.606 25.0444C174.309 24.512 176.099 24.3203 177.825 24.1287C177.866 24.1287 177.93 24.15 177.93 24.2139C177.93 24.2778 177.93 24.3203 177.866 24.3416C176.971 24.7889 176.12 25.3426 175.29 25.8963C175.033 26.0666 174.779 26.2371 174.587 26.45C174.225 26.876 174.118 27.4297 174.096 27.8129C174.076 28.3241 174.182 28.8352 174.267 29.325C174.289 29.4102 174.245 29.4528 174.182 29.4742Z" fill="#554C45"/>
</g>
</svg>
