<svg width="26" height="26" viewBox="0 0 26 26" fill="none" xmlns="http://www.w3.org/2000/svg">
<g clip-path="url(#clip0_7_3677)">
<path d="M18.4476 8.46308C18.374 8.46308 18.2997 8.44211 18.2338 8.39823C18.0561 8.27996 18.008 8.04002 18.1262 7.86234L22.3007 1.59009C22.419 1.41236 22.6589 1.36417 22.8366 1.48249C23.0143 1.60076 23.0625 1.8407 22.9442 2.01838L18.7698 8.29063C18.6953 8.40255 18.5726 8.46308 18.4476 8.46308Z" fill="#B1DBFC"/>
<path d="M17.309 8.76252C17.2508 8.76252 17.1918 8.74931 17.1363 8.72149L13.5507 6.92566C13.3598 6.83004 13.2826 6.59781 13.3782 6.40698C13.4738 6.21604 13.706 6.1388 13.8969 6.23447L17.4825 8.0303C17.6734 8.12592 17.7506 8.35815 17.655 8.54898C17.5872 8.68431 17.4508 8.76252 17.309 8.76252Z" fill="#B1DBFC"/>
<path d="M8.60538 11.0062C8.50656 11.0062 8.40779 10.9685 8.33228 10.8932C8.18121 10.7424 8.181 10.4976 8.33182 10.3466L12.0587 6.61328C12.2095 6.4622 12.4542 6.46195 12.6053 6.61282C12.7564 6.76359 12.7566 7.00835 12.6058 7.15943L8.87889 10.8927C8.80348 10.9683 8.70441 11.0062 8.60538 11.0062Z" fill="#B1DBFC"/>
<path d="M3.87857 13.6971C3.73816 13.6971 3.60283 13.6204 3.53438 13.4869C3.43693 13.297 3.51188 13.064 3.70185 12.9666L6.91641 11.3174C7.10638 11.2199 7.33931 11.295 7.43671 11.4848C7.53416 11.6748 7.45921 11.9077 7.26924 12.0052L4.05468 13.6544C3.99821 13.6834 3.93794 13.6971 3.87857 13.6971Z" fill="#B1DBFC"/>
<path d="M2.97229 14.9463C3.63237 14.9463 4.16747 14.4112 4.16747 13.7512C4.16747 13.0911 3.63237 12.556 2.97229 12.556C2.3122 12.556 1.7771 13.0911 1.7771 13.7512C1.7771 14.4112 2.3122 14.9463 2.97229 14.9463Z" fill="#FF656F"/>
<path d="M7.98611 12.4352C8.6462 12.4352 9.1813 11.9001 9.1813 11.24C9.1813 10.5799 8.6462 10.0448 7.98611 10.0448C7.32603 10.0448 6.79092 10.5799 6.79092 11.24C6.79092 11.9001 7.32603 12.4352 7.98611 12.4352Z" fill="#FFA85D"/>
<path d="M13 7.41278C13.6601 7.41278 14.1952 6.87767 14.1952 6.21759C14.1952 5.5575 13.6601 5.0224 13 5.0224C12.3399 5.0224 11.8048 5.5575 11.8048 6.21759C11.8048 6.87767 12.3399 7.41278 13 7.41278Z" fill="#FEE55A"/>
<path d="M18.0139 9.92401C18.674 9.92401 19.2091 9.3889 19.2091 8.72882C19.2091 8.06873 18.674 7.53363 18.0139 7.53363C17.3538 7.53363 16.8187 8.06873 16.8187 8.72882C16.8187 9.3889 17.3538 9.92401 18.0139 9.92401Z" fill="#43CB8E"/>
<path d="M23.0277 2.39037C23.6878 2.39037 24.2229 1.85527 24.2229 1.19519C24.2229 0.535104 23.6878 0 23.0277 0C22.3677 0 21.8326 0.535104 21.8326 1.19519C21.8326 1.85527 22.3677 2.39037 23.0277 2.39037Z" fill="#23A8FE"/>
<path d="M3.08269 13.7511C3.08269 13.332 3.29861 12.9635 3.62508 12.7501C3.43739 12.6275 3.21324 12.5559 2.97229 12.5559C2.31218 12.5559 1.7771 13.091 1.7771 13.7511C1.7771 14.4112 2.31223 14.9463 2.97229 14.9463C3.21324 14.9463 3.43739 14.8747 3.62508 14.752C3.29856 14.5388 3.08269 14.1703 3.08269 13.7511Z" fill="#FF4756"/>
<path d="M8.09651 11.24C8.09651 10.8208 8.31243 10.4524 8.6389 10.239C8.45122 10.1163 8.22707 10.0447 7.98611 10.0447C7.32601 10.0447 6.79092 10.5798 6.79092 11.2399C6.79092 11.9 7.32601 12.4351 7.98611 12.4351C8.22707 12.4351 8.45122 12.3636 8.6389 12.2409C8.31243 12.0276 8.09651 11.6591 8.09651 11.24Z" fill="#FF9839"/>
<path d="M13.1104 6.21758C13.1104 5.79843 13.3263 5.42996 13.6528 5.21658C13.4651 5.09389 13.241 5.02234 13 5.02234C12.3399 5.02234 11.8048 5.55742 11.8048 6.21753C11.8048 6.87763 12.3399 7.41271 13 7.41271C13.241 7.41271 13.4651 7.34116 13.6528 7.21848C13.3263 7.00519 13.1104 6.63668 13.1104 6.21758Z" fill="#FFD301"/>
<path d="M18.1243 8.72881C18.1243 8.30966 18.3402 7.94119 18.6667 7.72781C18.479 7.60512 18.2548 7.53357 18.0139 7.53357C17.3538 7.53357 16.8187 8.06865 16.8187 8.72876C16.8187 9.38886 17.3538 9.92394 18.0139 9.92394C18.2548 9.92394 18.479 9.85239 18.6667 9.72971C18.3402 9.51643 18.1243 9.14791 18.1243 8.72881Z" fill="#00BA66"/>
<path d="M23.1381 1.19519C23.1381 0.776039 23.3541 0.40757 23.6805 0.194187C23.4928 0.0715508 23.2687 0 23.0277 0C22.3676 0 21.8326 0.535082 21.8326 1.19519C21.8326 1.85529 22.3677 2.39037 23.0277 2.39037C23.2687 2.39037 23.4928 2.31882 23.6805 2.19614C23.3541 1.9828 23.1381 1.61434 23.1381 1.19519Z" fill="#0193FA"/>
<path d="M4.26491 18.1751H1.67964C1.50109 18.1751 1.35641 18.3198 1.35641 18.4983V25.6134H4.58818V18.4984C4.58813 18.3199 4.44341 18.1751 4.26491 18.1751Z" fill="#FF656F"/>
<path d="M9.27874 15.6639H6.69346C6.51491 15.6639 6.37024 15.8087 6.37024 15.9872V25.6135H9.60201V15.9872C9.60201 15.8087 9.45728 15.6639 9.27874 15.6639Z" fill="#FFA85D"/>
<path d="M14.2927 10.6197H11.7074C11.5288 10.6197 11.3842 10.7644 11.3842 10.9429V25.6135H14.6159V10.9429C14.6159 10.7644 14.4711 10.6197 14.2927 10.6197Z" fill="#FEE55A"/>
<path d="M19.3065 13.1528H16.7213C16.5428 13.1528 16.398 13.2975 16.398 13.476V25.6135H19.6298V13.476C19.6298 13.2975 19.485 13.1528 19.3065 13.1528Z" fill="#43CB8E"/>
<path d="M24.3204 5.58386H21.7351C21.5565 5.58386 21.4119 5.72859 21.4119 5.90708V25.6135H24.6436V5.90714C24.6436 5.72859 24.4989 5.58386 24.3204 5.58386Z" fill="#23A8FE"/>
<path d="M3.66574 18.1751H1.67964C1.50109 18.1751 1.35641 18.3198 1.35641 18.4983V25.6134H3.34257V18.4984C3.34252 18.3199 3.48725 18.1751 3.66574 18.1751Z" fill="#FF4756"/>
<path d="M8.67962 15.6639H6.69346C6.51491 15.6639 6.37024 15.8087 6.37024 15.9872V25.6135H8.3564V15.9872C8.3564 15.8087 8.50107 15.6639 8.67962 15.6639Z" fill="#FF9839"/>
<path d="M13.6935 10.6197H11.7074C11.5288 10.6197 11.3842 10.7644 11.3842 10.9429V25.6135H13.3703V10.9429C13.3703 10.7644 13.515 10.6197 13.6935 10.6197Z" fill="#FFD301"/>
<path d="M18.7074 13.1528H16.7213C16.5428 13.1528 16.398 13.2975 16.398 13.476V25.6135H18.3842V13.476C18.3841 13.2975 18.5289 13.1528 18.7074 13.1528Z" fill="#00BA66"/>
<path d="M23.7212 5.58386H21.7351C21.5565 5.58386 21.4119 5.72859 21.4119 5.90708V25.6135H23.398V5.90714C23.398 5.72859 23.5427 5.58386 23.7212 5.58386Z" fill="#0193FA"/>
<path d="M25.5085 26H0.491507C0.278023 26 0.105011 25.827 0.105011 25.6134C0.105011 25.3999 0.278073 25.2269 0.491507 25.2269H25.5085C25.722 25.2269 25.895 25.3999 25.895 25.6134C25.895 25.8269 25.722 26 25.5085 26Z" fill="#23A8FE"/>
</g>
<defs>
<clipPath id="clip0_7_3677">
<rect width="26" height="26" fill="white"/>
</clipPath>
</defs>
</svg>
