<svg width="26" height="26" viewBox="0 0 26 26" fill="none" xmlns="http://www.w3.org/2000/svg">
<path d="M24.9891 8.72493C24.9891 9.18388 24.617 9.55594 24.1581 9.55594H22.0876V7.89392H24.1581C24.617 7.89392 24.9891 8.26598 24.9891 8.72493Z" fill="#A2A2F9"/>
<path d="M24.989 13C24.989 13.459 24.617 13.831 24.158 13.831H22.0876V12.169H24.158C24.617 12.169 24.989 12.5411 24.989 13Z" fill="#A2A2F9"/>
<path d="M24.989 17.2751C24.989 17.7341 24.617 18.1061 24.158 18.1061H22.0876V16.4441H24.158C24.617 16.4441 24.989 16.8161 24.989 17.2751Z" fill="#A2A2F9"/>
<path d="M24.9886 8.72406C24.9886 9.18426 24.6168 9.55606 24.1592 9.55606H22.0871V8.90085H23.6471C24.1073 8.90085 24.479 8.52906 24.479 8.06887C24.479 8.02986 24.4764 7.99085 24.4686 7.95447C24.7728 8.07666 24.9886 8.37567 24.9886 8.72406Z" fill="#7979F7"/>
<path d="M24.9886 13.0011C24.9886 13.4587 24.6168 13.8305 24.1592 13.8305H22.0871V13.1753H23.6471C24.1073 13.1753 24.479 12.8035 24.479 12.3459C24.479 12.3069 24.4764 12.2679 24.4686 12.2289C24.7728 12.3511 24.9886 12.6501 24.9886 13.0011Z" fill="#7979F7"/>
<path d="M24.9886 17.2755C24.9886 17.7331 24.6168 18.1049 24.1592 18.1049H22.0871V17.4497H23.6471C24.1073 17.4497 24.479 17.0779 24.479 16.6203C24.479 16.5813 24.4764 16.5423 24.4686 16.5033C24.7728 16.6255 24.9886 16.9245 24.9886 17.2755Z" fill="#7979F7"/>
<path d="M1.01097 8.72493C1.01097 9.18388 1.38303 9.55594 1.84198 9.55594H3.91241V7.89392H1.84198C1.38303 7.89392 1.01097 8.26598 1.01097 8.72493Z" fill="#A2A2F9"/>
<path d="M1.01097 13C1.01097 13.459 1.38303 13.831 1.84198 13.831H3.91241V12.169H1.84198C1.38303 12.169 1.01097 12.5411 1.01097 13Z" fill="#A2A2F9"/>
<path d="M1.01097 17.2751C1.01097 17.7341 1.38303 18.1061 1.84198 18.1061H3.91241V16.4441H1.84198C1.38303 16.4441 1.01097 16.8161 1.01097 17.2751Z" fill="#A2A2F9"/>
<path d="M1.01137 8.72406C1.01137 9.18426 1.38315 9.55606 1.84075 9.55606H3.91294V8.90085H2.35294C1.89274 8.90085 1.52096 8.52906 1.52096 8.06887C1.52096 8.02986 1.52356 7.99085 1.53137 7.95447C1.22716 8.07666 1.01137 8.37567 1.01137 8.72406Z" fill="#7979F7"/>
<path d="M1.01137 13.0011C1.01137 13.4587 1.38315 13.8305 1.84075 13.8305H3.91294V13.1753H2.35294C1.89274 13.1753 1.52096 12.8035 1.52096 12.3459C1.52096 12.3069 1.52356 12.2679 1.53137 12.2289C1.22716 12.3511 1.01137 12.6501 1.01137 13.0011Z" fill="#7979F7"/>
<path d="M1.01137 17.2755C1.01137 17.7331 1.38315 18.1049 1.84075 18.1049H3.91294V17.4497H2.35294C1.89274 17.4497 1.52096 17.0779 1.52096 16.6203C1.52096 16.5813 1.52356 16.5423 1.53137 16.5033C1.22716 16.6255 1.01137 16.9245 1.01137 17.2755Z" fill="#7979F7"/>
<path d="M8.7249 1.01099C9.18386 1.01099 9.55591 1.38304 9.55591 1.84199V3.91243H7.8939V1.842C7.8939 1.38304 8.26595 1.01099 8.7249 1.01099Z" fill="#A2A2F9"/>
<path d="M13 1.01099C13.459 1.01099 13.831 1.38304 13.831 1.84199V3.91243H12.169V1.842C12.169 1.38304 12.541 1.01099 13 1.01099Z" fill="#A2A2F9"/>
<path d="M17.2751 1.01099C17.734 1.01099 18.1061 1.38304 18.1061 1.84199V3.91243H16.4441V1.842C16.4441 1.38304 16.8161 1.01099 17.2751 1.01099Z" fill="#A2A2F9"/>
<path d="M8.72406 1.01135C9.18426 1.01135 9.55606 1.38313 9.55606 1.84074V3.91293H8.90085V2.35293C8.90085 1.89272 8.52906 1.52094 8.06887 1.52094C8.02986 1.52094 7.99085 1.52354 7.95447 1.53135C8.07666 1.22714 8.37567 1.01135 8.72406 1.01135Z" fill="#7979F7"/>
<path d="M13.0011 1.01135C13.4587 1.01135 13.8305 1.38313 13.8305 1.84074V3.91293H13.1753V2.35293C13.1753 1.89272 12.8035 1.52094 12.3459 1.52094C12.3069 1.52094 12.2679 1.52354 12.2289 1.53135C12.3511 1.22714 12.6501 1.01135 13.0011 1.01135Z" fill="#7979F7"/>
<path d="M17.2755 1.01135C17.7331 1.01135 18.1049 1.38313 18.1049 1.84074V3.91293H17.4497V2.35293C17.4497 1.89272 17.0779 1.52094 16.6203 1.52094C16.5813 1.52094 16.5423 1.52354 16.5033 1.53135C16.6255 1.22714 16.9245 1.01135 17.2755 1.01135Z" fill="#7979F7"/>
<path d="M8.7249 24.9891C9.18386 24.9891 9.55591 24.617 9.55591 24.1581V22.0876H7.8939V24.1581C7.8939 24.617 8.26595 24.9891 8.7249 24.9891Z" fill="#A2A2F9"/>
<path d="M13 24.989C13.459 24.989 13.831 24.617 13.831 24.158V22.0876H12.169V24.158C12.169 24.617 12.541 24.989 13 24.989Z" fill="#A2A2F9"/>
<path d="M17.2751 24.989C17.734 24.989 18.1061 24.617 18.1061 24.158V22.0876H16.4441V24.158C16.4441 24.617 16.8161 24.989 17.2751 24.989Z" fill="#A2A2F9"/>
<path d="M8.72406 24.9886C9.18426 24.9886 9.55606 24.6168 9.55606 24.1592V22.087H8.90085V23.647C8.90085 24.1072 8.52906 24.479 8.06887 24.479C8.02986 24.479 7.99085 24.4764 7.95447 24.4686C8.07666 24.7728 8.37567 24.9886 8.72406 24.9886Z" fill="#7979F7"/>
<path d="M13.0011 24.9886C13.4587 24.9886 13.8305 24.6168 13.8305 24.1592V22.087H13.1753V23.647C13.1753 24.1072 12.8035 24.479 12.3459 24.479C12.3069 24.479 12.2679 24.4764 12.2289 24.4686C12.3511 24.7728 12.6501 24.9886 13.0011 24.9886Z" fill="#7979F7"/>
<path d="M17.2755 24.9886C17.7331 24.9886 18.1049 24.6168 18.1049 24.1592V22.087H17.4497V23.647C17.4497 24.1072 17.0779 24.479 16.6203 24.479C16.5813 24.479 16.5423 24.4764 16.5033 24.4686C16.6255 24.7728 16.9245 24.9886 17.2755 24.9886Z" fill="#7979F7"/>
<path d="M22.5786 6.25777V19.7422C22.5786 21.3087 21.3087 22.5785 19.7422 22.5785H6.25777C4.69131 22.5785 3.42144 21.3087 3.42144 19.7422V6.25777C3.42144 4.69131 4.69131 3.42145 6.25777 3.42145H19.7422C21.3087 3.42145 22.5786 4.69131 22.5786 6.25777Z" fill="#F9B938"/>
<path d="M22.578 6.25667V19.7429C22.578 21.3095 21.308 22.5795 19.7414 22.5795H6.25782C5.10083 22.5795 4.10501 21.8853 3.66563 20.8947C4.0296 21.0663 4.43522 21.1599 4.86419 21.1599H15.6477C18.7055 21.1599 21.1844 18.681 21.1844 15.6232V4.83966C21.1844 4.42887 21.0986 4.04146 20.94 3.68787C21.9072 4.13767 22.578 5.12047 22.578 6.25667Z" fill="#ECB021"/>
<path d="M20.2824 7.23918V18.7608C20.2824 19.6019 19.6006 20.2837 18.7595 20.2837H7.24047C6.3994 20.2837 5.71759 19.6019 5.71759 18.7608V7.23918C5.71759 6.39812 6.3994 5.71631 7.24047 5.71631H18.7595C19.6006 5.71631 20.2824 6.39812 20.2824 7.23918Z" fill="white"/>
<path d="M20.2822 7.23946V18.7601C20.2822 19.6025 19.601 20.2837 18.7586 20.2837H7.24063C6.52043 20.2837 5.91721 19.7845 5.75861 19.1111C5.81584 19.1189 5.87303 19.1214 5.93282 19.1214H17.4508C18.2932 19.1214 18.9744 18.4377 18.9744 17.5979V6.07725C18.9744 5.95506 18.9614 5.83806 18.9328 5.72626C19.692 5.81206 20.2822 6.45686 20.2822 7.23946Z" fill="#E4E3FF"/>
<path d="M13 16.568C13 17.6165 12.1487 18.4648 11.1032 18.4648C10.0548 18.4648 9.20646 17.6165 9.20646 16.568C9.20646 16.4904 9.21244 16.4157 9.22137 16.341C8.24166 16.2663 7.47102 15.4479 7.47102 14.4502C7.47102 13.8708 7.73385 13.348 8.14609 13.0015C7.73385 12.652 7.47102 12.1323 7.47102 11.5498C7.47102 10.5522 8.24166 9.73374 9.22137 9.65906C9.21244 9.58439 9.20646 9.50971 9.20646 9.43205C9.20646 8.3836 10.0548 7.53528 11.1032 7.53528C12.1487 7.53528 13 8.3836 13 9.43205V16.568Z" fill="#FC6559"/>
<path d="M13.0003 9.43103V16.5686C13.0003 17.6157 12.1494 18.4644 11.1023 18.4644C10.4029 18.4644 9.79084 18.0848 9.46456 17.5218C9.70765 17.637 9.97848 17.6988 10.2643 17.6988C11.3092 17.6988 12.1622 16.8501 12.1622 15.8009V8.66545C12.1622 8.31785 12.0684 7.99158 11.9042 7.71222C12.5525 8.01503 13.0003 8.67185 13.0003 9.43103Z" fill="#F05543"/>
<path d="M13 16.568C13 17.6165 13.8513 18.4648 14.8968 18.4648C15.9452 18.4648 16.7935 17.6165 16.7935 16.568C16.7935 16.4904 16.7876 16.4157 16.7786 16.341C17.7583 16.2663 18.529 15.4479 18.529 14.4502C18.529 13.8708 18.2661 13.348 17.8539 13.0015C18.2661 12.652 18.529 12.1323 18.529 11.5498C18.529 10.5522 17.7583 9.73374 16.7786 9.65906C16.7876 9.58439 16.7935 9.50971 16.7935 9.43205C16.7935 8.3836 15.9452 7.53528 14.8968 7.53528C13.8513 7.53528 13 8.3836 13 9.43205V16.568Z" fill="#FC6559"/>
<path d="M18.5287 14.451C18.5287 15.4469 17.7589 16.2658 16.7779 16.3404C16.7886 16.4151 16.7928 16.4897 16.7928 16.5686C16.7928 17.6157 15.9462 18.4644 14.897 18.4644C14.1357 18.4644 13.4768 18.0144 13.1761 17.364C13.4597 17.5346 13.7903 17.6327 14.1442 17.6327C15.1934 17.6327 16.0401 16.784 16.0401 15.7369C16.0401 15.658 16.0358 15.5834 16.0251 15.5087C17.0061 15.4341 17.7759 14.6152 17.7759 13.6193C17.7759 13.0393 17.5136 12.5168 17.1021 12.1692C17.5136 11.8195 17.7759 11.3013 17.7759 10.7191C17.7759 10.4333 17.7119 10.1625 17.5989 9.91937C18.1555 10.2499 18.5287 10.8556 18.5287 11.5508C18.5287 12.1329 18.2664 12.6511 17.8548 13.0009C18.2664 13.3485 18.5287 13.871 18.5287 14.451Z" fill="#F05543"/>
<path d="M9.26861 13.4456C9.26861 13.5548 9.18282 13.6406 9.07361 13.6406C8.64721 13.6406 8.23381 13.5106 7.88802 13.2688C7.9634 13.17 8.04919 13.0816 8.14542 13.001C8.10381 12.9672 8.06481 12.9308 8.0284 12.8918C8.32741 13.1258 8.69142 13.2506 9.07361 13.2506C9.18282 13.2506 9.26861 13.339 9.26861 13.4456Z" fill="#F05543"/>
<path d="M9.6846 15.4633C9.44282 15.7051 9.28159 16.0119 9.21919 16.3421C9.08659 16.3316 8.95659 16.3083 8.8344 16.2693C8.91241 15.861 9.11001 15.484 9.40899 15.1877C9.487 15.1096 9.60919 15.1096 9.6846 15.1877C9.76262 15.2631 9.76262 15.3852 9.6846 15.4633Z" fill="#F05543"/>
<path d="M9.47398 10.7312C9.43761 10.7572 9.396 10.7702 9.35699 10.7702C9.2972 10.7702 9.24001 10.7442 9.201 10.6922C8.98781 10.4114 8.85261 10.0864 8.80322 9.74323C8.92541 9.70163 9.05281 9.67563 9.18541 9.66522C9.22179 9.95384 9.3336 10.2242 9.51041 10.4582C9.57542 10.544 9.5598 10.6662 9.47398 10.7312Z" fill="#F05543"/>
<path d="M18.1372 13.2948C17.7862 13.5496 17.3598 13.6874 16.9204 13.6874C16.8138 13.6874 16.7254 13.599 16.7254 13.4924C16.7254 13.3833 16.8138 13.2974 16.9204 13.2974C17.261 13.2974 17.586 13.196 17.8616 13.0089C17.963 13.0921 18.054 13.1882 18.1372 13.2948Z" fill="#F05543"/>
<path d="M17.1986 16.2588C17.0764 16.2978 16.949 16.3264 16.8164 16.3368C16.7696 15.9676 16.6006 15.6244 16.3328 15.3566C16.2574 15.2812 16.2574 15.1564 16.3328 15.081C16.4108 15.0056 16.533 15.0056 16.611 15.081C16.9308 15.4034 17.1362 15.8142 17.1986 16.2588Z" fill="#F05543"/>
<path d="M17.1726 9.73545C17.1128 10.0319 16.9854 10.3127 16.7982 10.5622C16.7592 10.6116 16.702 10.6377 16.6422 10.6377C16.6006 10.6377 16.559 10.6246 16.5252 10.5987C16.4394 10.5337 16.4212 10.4114 16.4862 10.3257C16.637 10.1281 16.7384 9.90186 16.7904 9.66266C16.923 9.67045 17.0504 9.69645 17.1726 9.73545Z" fill="#F05543"/>
<path d="M14.3478 12.1261C14.2401 12.1261 14.1528 12.0388 14.1528 11.9311C14.1528 11.3449 14.6296 10.868 15.2156 10.868C15.3233 10.868 15.4106 10.9554 15.4106 11.063C15.4106 11.1707 15.3233 11.258 15.2156 11.258C14.8447 11.258 14.5428 11.5599 14.5428 11.9311C14.5428 12.0388 14.4554 12.1261 14.3478 12.1261Z" fill="#F05543"/>
<path d="M13.9123 14.0065C13.8296 14.0065 13.7526 13.9535 13.7265 13.8702C13.6721 13.6986 13.5546 13.5584 13.3951 13.4756C13.2362 13.3926 13.0539 13.3769 12.882 13.4309C12.7784 13.4642 12.6697 13.4066 12.6375 13.3037C12.605 13.2011 12.6618 13.0915 12.7647 13.0592C13.3233 12.882 13.9217 13.194 14.0982 13.7529C14.1307 13.8555 14.0738 13.9652 13.971 13.9974C13.9514 14.0037 13.9316 14.0065 13.9123 14.0065Z" fill="#F05543"/>
<path d="M11.1288 12.0319C11.0874 12.0319 11.0457 12.0187 11.0104 11.9916C10.9249 11.926 10.9086 11.8037 10.9744 11.7184C11.3311 11.2532 11.9997 11.1651 12.4646 11.5221C12.5501 11.5876 12.5664 11.71 12.5006 11.7953C12.4354 11.8811 12.3127 11.8969 12.2274 11.8313C12.0845 11.7219 11.908 11.6734 11.7298 11.698C11.5515 11.7214 11.3933 11.8128 11.2836 11.9555C11.2453 12.0058 11.1874 12.0319 11.1288 12.0319Z" fill="#F05543"/>
<path d="M12.4774 15.0242C12.3898 15.0242 12.3103 14.9648 12.2882 14.8759C12.1996 14.5156 11.8353 14.2947 11.4742 14.3833C11.3694 14.4087 11.2642 14.3452 11.2381 14.2406C11.2124 14.136 11.2762 14.0304 11.3808 14.0045C11.95 13.8646 12.5267 14.2135 12.6671 14.7825C12.6927 14.8871 12.629 14.9927 12.5244 15.0186C12.5086 15.0224 12.4929 15.0242 12.4774 15.0242Z" fill="#F05543"/>
</svg>
