<svg width="26" height="26" viewBox="0 0 26 26" fill="none" xmlns="http://www.w3.org/2000/svg">
<g clip-path="url(#clip0_7_3523)">
<path d="M6.37077 21.2728C4.22825 21.2728 2.68577 20.6169 1.97296 19.3823C1.14553 17.9494 1.54991 15.94 3.11106 13.7243C4.63076 11.5676 7.07797 9.45025 10.0016 7.76215C16.1977 4.18506 22.3799 3.68415 24.0759 6.62107C25.7423 9.50776 22.1413 14.7181 16.0483 18.236C13.1254 19.9235 10.0685 20.9841 7.44054 21.2224C7.06939 21.2561 6.71242 21.2728 6.37077 21.2728ZM10.269 8.2259C7.41141 9.87573 5.02469 11.938 3.54868 14.0327C2.11448 16.0681 1.71943 17.8728 2.43672 19.1146C3.15251 20.355 4.91342 20.9136 7.392 20.6893C9.9445 20.4578 12.9234 19.422 15.781 17.7722C21.6182 14.4022 25.1311 9.51989 23.6121 6.88879C22.092 4.25619 16.1073 4.85548 10.269 8.2259Z" fill="#705CF6"/>
<path d="M19.6736 21.272C19.3327 21.272 18.9768 21.2556 18.6064 21.222C15.9789 20.9844 12.9216 19.9237 9.99827 18.236C7.07611 16.5488 4.63039 14.4321 3.11106 12.2756C1.54991 10.0598 1.1459 8.05063 1.97297 6.61792C3.63979 3.73124 9.95234 4.24446 16.045 7.76218C22.2429 11.3408 25.7707 16.4433 24.0759 19.379C23.362 20.6153 21.818 21.272 19.6736 21.272ZM10.2656 17.7723C13.1236 19.4223 16.1028 20.4581 18.655 20.689C21.1324 20.9123 22.8952 20.3529 23.6121 19.1112C25.1311 16.4803 21.6163 11.5971 15.7776 8.22594C9.93927 4.85552 3.95567 4.25454 2.43672 6.88565C1.71981 8.12717 2.11448 9.93196 3.54868 11.9673C5.02395 14.0617 7.40955 16.1232 10.2656 17.7723Z" fill="#705CF6"/>
<path d="M13.0216 25.7611C9.68835 25.7611 6.97641 20.0374 6.97641 13.002C6.97641 5.84518 9.63197 0.238892 13.0216 0.238892C16.4131 0.238892 19.0702 5.84518 19.0702 13.002C19.0702 20.1565 16.4131 25.7611 13.0216 25.7611ZM13.0216 0.774335C9.98333 0.774335 7.51185 6.25964 7.51185 13.002C7.51185 19.7423 9.98333 25.2257 13.0216 25.2257C16.0618 25.2257 18.5347 19.7423 18.5347 13.002C18.5347 6.25964 16.0618 0.774335 13.0216 0.774335Z" fill="#705CF6"/>
<path d="M10.2876 3.52342C11.1323 3.52342 11.817 2.83868 11.817 1.99401C11.817 1.14934 11.1323 0.4646 10.2876 0.4646C9.44292 0.4646 8.75818 1.14934 8.75818 1.99401C8.75818 2.83868 9.44292 3.52342 10.2876 3.52342Z" fill="#70C1F9"/>
<path d="M23.6822 20.9166C24.5268 20.9166 25.2116 20.2319 25.2116 19.3872C25.2116 18.5425 24.5268 17.8578 23.6822 17.8578C22.8375 17.8578 22.1527 18.5425 22.1527 19.3872C22.1527 20.2319 22.8375 20.9166 23.6822 20.9166Z" fill="#ED524E"/>
<path d="M17.6271 12.2456L16.4246 11.929C16.3646 11.7291 16.2813 11.5326 16.1814 11.3428L16.811 10.2735C16.8476 10.2034 16.841 10.1201 16.781 10.0603L15.9615 9.24081C15.9049 9.18421 15.8149 9.16745 15.745 9.21088L15.1887 9.53392L14.6724 9.83711L14.5724 9.78701C14.4791 9.74049 14.3792 9.69723 14.2793 9.66047C14.2159 9.63721 14.156 9.6172 14.0894 9.59394L13.7762 8.39467C13.7529 8.31806 13.683 8.26471 13.603 8.26471H12.4405C12.4338 8.26471 12.4271 8.26471 12.4238 8.26813C12.3505 8.27138 12.2872 8.32473 12.2705 8.39467L12.2638 8.41126L12.2306 8.54123L12.1805 8.74113L11.954 9.59394C11.7509 9.66047 11.5543 9.74049 11.3677 9.83711L10.2984 9.21088C10.2285 9.16745 10.1419 9.18421 10.0819 9.24081L9.26248 10.0603C9.20579 10.1201 9.19579 10.2034 9.2358 10.2735L9.80209 11.2462V11.2529L9.85878 11.3428C9.85536 11.3562 9.84869 11.3628 9.84544 11.3762C9.75216 11.5526 9.67888 11.7392 9.61886 11.9325L9.35243 12.0024L8.41967 12.2456C8.33973 12.2656 8.28638 12.3355 8.28638 12.4154V13.5746C8.28638 13.6613 8.33973 13.7279 8.41967 13.7479L9.61886 14.0644C9.68213 14.2675 9.76216 14.464 9.86203 14.6474L9.2358 15.7201C9.19579 15.79 9.20579 15.8798 9.26248 15.9366L10.0819 16.756C10.1419 16.8126 10.2285 16.826 10.2984 16.786L10.8515 16.4595L11.3677 16.1563C11.4011 16.1763 11.4377 16.1931 11.471 16.2097C11.5676 16.2564 11.6643 16.2962 11.7641 16.3362C11.8275 16.3596 11.8908 16.3795 11.954 16.3995L12.2705 17.6022C12.2872 17.682 12.3604 17.7354 12.4405 17.7354H13.603C13.683 17.7354 13.7529 17.682 13.7762 17.6022L14.0894 16.3995C14.2926 16.3362 14.4891 16.2564 14.6724 16.1563L14.6757 16.1597L14.8256 16.2497L14.9189 16.303L15.1754 16.4528L15.4952 16.6362L15.745 16.786C15.765 16.7959 15.7883 16.806 15.8083 16.8092C15.8582 16.8159 15.9116 16.7993 15.9515 16.766C15.9582 16.7627 15.9615 16.7593 15.9615 16.756L16.2813 16.4328L16.6744 16.0399L16.781 15.9366C16.841 15.8798 16.8476 15.79 16.811 15.7201L16.2413 14.7506L16.1814 14.6474C16.1881 14.6374 16.1947 14.6273 16.198 14.6173C16.2879 14.4408 16.3679 14.2542 16.4246 14.0644L16.691 13.9944L17.6271 13.7479C17.7037 13.7279 17.7603 13.6613 17.7603 13.5746V12.4154C17.7603 12.3355 17.7037 12.2656 17.6271 12.2456Z" fill="#ED524E"/>
<path d="M13.021 15.3744C14.3338 15.3744 15.3981 14.3102 15.3981 12.9973C15.3981 11.6845 14.3338 10.6202 13.021 10.6202C11.7082 10.6202 10.6439 11.6845 10.6439 12.9973C10.6439 14.3102 11.7082 15.3744 13.021 15.3744Z" fill="#705CF6"/>
<path d="M13.021 14.9527C14.1009 14.9527 14.9764 14.0773 14.9764 12.9973C14.9764 11.9174 14.1009 11.042 13.021 11.042C11.9411 11.042 11.0657 11.9174 11.0657 12.9973C11.0657 14.0773 11.9411 14.9527 13.021 14.9527Z" fill="#E9E9FF"/>
<path d="M12.6657 13.9381C12.6148 13.9381 12.564 13.9187 12.5252 13.8799L11.758 13.1127C11.6804 13.0352 11.6804 12.9094 11.758 12.8318C11.8356 12.7543 11.9613 12.7543 12.0389 12.8318L12.6657 13.4586L14.0061 12.1182C14.084 12.0406 14.2098 12.0408 14.287 12.1182C14.3646 12.1958 14.3646 12.3215 14.287 12.3991L12.8061 13.8799C12.7673 13.9187 12.7164 13.9381 12.6657 13.9381Z" fill="#ED524E"/>
<path d="M2.3182 20.8528C3.16287 20.8528 3.84761 20.168 3.84761 19.3234C3.84761 18.4787 3.16287 17.7939 2.3182 17.7939C1.47353 17.7939 0.788788 18.4787 0.788788 19.3234C0.788788 20.168 1.47353 20.8528 2.3182 20.8528Z" fill="#FDC72E"/>
<g opacity="0.2">
<path d="M15.1513 16.4392L14.9181 16.3016L14.8263 16.248L14.6772 16.1601L14.6733 16.1564C14.4898 16.2557 14.291 16.336 14.0883 16.401L13.7749 17.6016C13.7519 17.6819 13.683 17.7355 13.6027 17.7355H12.4404C12.3601 17.7355 12.2875 17.6819 12.2721 17.6016L11.9549 16.401C11.8898 16.378 11.8286 16.3589 11.7637 16.336C11.6643 16.2977 11.5687 16.2557 11.4693 16.2098C11.4386 16.1947 11.4005 16.1754 11.366 16.1564L10.9186 16.4163L9.43129 11.9809L9.61864 11.9313C9.67987 11.7401 9.7525 11.5528 9.84426 11.377C9.84808 11.3617 9.85574 11.3577 9.85947 11.3424L9.80216 11.2545V11.2468L9.23628 10.2719C9.19428 10.203 9.20566 10.119 9.26307 10.0617L10.0813 9.23949C10.1425 9.18609 10.2266 9.16686 10.2992 9.20887L11.366 9.83598C11.5534 9.74039 11.7522 9.66011 11.9549 9.59514L12.1804 8.7425L12.2301 8.53975L12.2645 8.40981L12.2721 8.3945C12.2875 8.33327 12.3372 8.28361 12.4022 8.27222L15.1513 16.4392Z" fill="white"/>
<path d="M16.7801 15.9383L16.673 16.0416L16.2831 16.4316L16.2448 16.4699L13.4843 8.26459H13.6027C13.683 8.26459 13.7519 8.31817 13.7748 8.39453L14.0883 9.59517C14.1572 9.61813 14.2145 9.63717 14.2795 9.66014C14.3789 9.69841 14.4783 9.74042 14.5739 9.78634L14.6733 9.83601L15.1245 9.5722L16.6157 14.0152L16.4245 14.0649C16.3671 14.256 16.2868 14.4396 16.1989 14.6154C16.1951 14.627 16.1875 14.6384 16.1799 14.646L16.241 14.7493L16.8107 15.7205C16.849 15.7892 16.8413 15.881 16.7801 15.9383Z" fill="white"/>
</g>
</g>
<defs>
<clipPath id="clip0_7_3523">
<rect width="26" height="26" fill="white"/>
</clipPath>
</defs>
</svg>
