<svg width="26" height="26" viewBox="0 0 26 26" fill="none" xmlns="http://www.w3.org/2000/svg">
<g clip-path="url(#clip0_7_3501)">
<path d="M12.7098 17.4688H12.1946C12.0802 17.0399 11.9105 16.6277 11.69 16.2425L12.052 15.8804C12.2586 15.6735 12.3746 15.3931 12.3746 15.1008C12.3746 14.8084 12.2586 14.528 12.052 14.3211L11.6789 13.948C11.4719 13.7415 11.1915 13.6256 10.8992 13.6256C10.6069 13.6256 10.3265 13.7415 10.1196 13.948L9.76327 14.304C9.3766 14.0802 8.96245 13.9075 8.53125 13.7905V13.2902C8.5309 12.9979 8.41461 12.7176 8.20789 12.5109C8.00117 12.3041 7.72089 12.1878 7.42854 12.1875H7.19646C6.90411 12.1878 6.62383 12.3041 6.41711 12.5109C6.21039 12.7176 6.0941 12.9979 6.09375 13.2902V13.7905C5.66254 13.9075 5.24838 14.0802 4.86171 14.3041L4.50543 13.948C4.29843 13.7415 4.01801 13.6256 3.72566 13.6256C3.43331 13.6256 3.15289 13.7415 2.94589 13.948L2.57316 14.3209C2.36755 14.5284 2.2522 14.8086 2.2522 15.1007C2.2522 15.3928 2.36755 15.673 2.57316 15.8805L2.93498 16.2425C2.71455 16.6278 2.54494 17.0399 2.43036 17.4688H1.91521C1.62286 17.4691 1.34258 17.5854 1.13586 17.7921C0.929135 17.9988 0.812846 18.2791 0.8125 18.5715V18.8035C0.812846 19.0959 0.929135 19.3762 1.13586 19.5829C1.34258 19.7896 1.62286 19.9059 1.91521 19.9062H2.43988C2.55665 20.3307 2.72745 20.7385 2.9481 21.1194L2.57319 21.4944C2.36762 21.7018 2.25227 21.982 2.25223 22.2741C2.2522 22.5661 2.36747 22.8464 2.57299 23.0539L2.94611 23.427C3.15298 23.6336 3.4334 23.7497 3.72578 23.7497C4.01817 23.7497 4.29859 23.6336 4.50545 23.427L4.88631 23.0462C5.26587 23.2636 5.67163 23.4317 6.09375 23.5464V24.0848C6.0941 24.3771 6.21039 24.6574 6.41711 24.8641C6.62383 25.0709 6.90411 25.1872 7.19646 25.1875H7.42854C7.72089 25.1872 8.00117 25.0709 8.20789 24.8641C8.41461 24.6574 8.5309 24.3771 8.53125 24.0848V23.5464C8.95337 23.4317 9.35913 23.2636 9.73869 23.0462L10.1196 23.427C10.3265 23.6335 10.6069 23.7494 10.8992 23.7494C11.1915 23.7494 11.4719 23.6335 11.6789 23.427L12.052 23.0539C12.2586 22.847 12.3746 22.5666 12.3746 22.2742C12.3746 21.9819 12.2586 21.7015 12.052 21.4946L11.6769 21.1194C11.8976 20.7385 12.0684 20.3308 12.1851 19.9062H12.7098C13.0021 19.9059 13.2824 19.7896 13.4891 19.5829C13.6959 19.3762 13.8122 19.0959 13.8125 18.8035V18.5715C13.8122 18.2791 13.6959 17.9988 13.4891 17.7921C13.2824 17.5854 13.0021 17.4691 12.7098 17.4688Z" fill="#1E88E5"/>
<path d="M18.6875 13.4062C22.2774 13.4062 25.1875 10.4961 25.1875 6.90625C25.1875 3.3164 22.2774 0.40625 18.6875 0.40625C15.0976 0.40625 12.1875 3.3164 12.1875 6.90625C12.1875 10.4961 15.0976 13.4062 18.6875 13.4062Z" fill="#FF9800"/>
<path d="M18.6875 11.7812C21.3799 11.7812 23.5625 9.59864 23.5625 6.90625C23.5625 4.21386 21.3799 2.03125 18.6875 2.03125C15.9951 2.03125 13.8125 4.21386 13.8125 6.90625C13.8125 9.59864 15.9951 11.7812 18.6875 11.7812Z" fill="#EEEEEE"/>
<path d="M19.9062 7.3125H18.6875C18.6341 7.31251 18.5813 7.30202 18.532 7.2816C18.4827 7.26119 18.4379 7.23127 18.4002 7.19354C18.3625 7.15582 18.3326 7.11103 18.3121 7.06173C18.2917 7.01244 18.2812 6.9596 18.2813 6.90625V4.875C18.2813 4.76726 18.3241 4.66392 18.4002 4.58774C18.4764 4.51155 18.5798 4.46875 18.6875 4.46875C18.7952 4.46875 18.8986 4.51155 18.9748 4.58774C19.0509 4.66392 19.0938 4.76726 19.0938 4.875V6.5H19.9062C20.014 6.5 20.1173 6.5428 20.1935 6.61899C20.2697 6.69517 20.3125 6.79851 20.3125 6.90625C20.3125 7.01399 20.2697 7.11733 20.1935 7.19351C20.1173 7.2697 20.014 7.3125 19.9062 7.3125Z" fill="black"/>
<path d="M19.0938 2.0475V3.65625C19.0938 3.76399 19.0509 3.86733 18.9748 3.94351C18.8986 4.0197 18.7952 4.0625 18.6875 4.0625C18.5798 4.0625 18.4764 4.0197 18.4002 3.94351C18.3241 3.86733 18.2812 3.76399 18.2812 3.65625V2.0475C18.4153 2.03531 18.5494 2.03125 18.6875 2.03125C18.8256 2.03125 18.9597 2.03531 19.0938 2.0475Z" fill="black"/>
<path d="M19.0938 10.1562V11.765C18.9597 11.7772 18.8256 11.7812 18.6875 11.7812C18.5494 11.7812 18.4153 11.7772 18.2812 11.765V10.1562C18.2812 10.0485 18.3241 9.94517 18.4002 9.86899C18.4764 9.7928 18.5798 9.75 18.6875 9.75C18.7952 9.75 18.8986 9.7928 18.9748 9.86899C19.0509 9.94517 19.0938 10.0485 19.0938 10.1562Z" fill="black"/>
<path d="M23.5625 6.90625C23.5625 7.04438 23.5584 7.17844 23.5462 7.3125H21.9375C21.8298 7.3125 21.7264 7.2697 21.6502 7.19351C21.5741 7.11733 21.5312 7.01399 21.5312 6.90625C21.5312 6.79851 21.5741 6.69517 21.6502 6.61899C21.7264 6.5428 21.8298 6.5 21.9375 6.5H23.5462C23.5584 6.63406 23.5625 6.76812 23.5625 6.90625Z" fill="black"/>
<path d="M15.8438 6.90625C15.8434 7.0139 15.8005 7.11704 15.7244 7.19316C15.6483 7.26927 15.5451 7.31218 15.4375 7.3125H13.8288C13.8166 7.17844 13.8125 7.04438 13.8125 6.90625C13.8125 6.76812 13.8166 6.63406 13.8288 6.5H15.4375C15.5451 6.50032 15.6483 6.54323 15.7244 6.61934C15.8005 6.69546 15.8434 6.7986 15.8438 6.90625Z" fill="black"/>
<path d="M22.4087 3.75781L21.2713 4.89531C21.1953 4.97127 21.0923 5.01394 20.9848 5.01394C20.8774 5.01394 20.7744 4.97127 20.6984 4.89531C20.6225 4.81935 20.5798 4.71633 20.5798 4.6089C20.5798 4.50148 20.6225 4.39846 20.6984 4.3225L21.8359 3.185C22.0428 3.35933 22.2344 3.55096 22.4087 3.75781Z" fill="black"/>
<path d="M16.6766 9.49003L15.5391 10.6275C15.3322 10.4532 15.1406 10.2616 14.9662 10.0547L16.1037 8.91722C16.1797 8.84126 16.2827 8.79858 16.3902 8.79858C16.4976 8.79858 16.6006 8.84126 16.6766 8.91722C16.7525 8.99318 16.7952 9.0962 16.7952 9.20362C16.7952 9.31105 16.7525 9.41407 16.6766 9.49003Z" fill="black"/>
<path d="M22.4087 10.0547C22.2344 10.2616 22.0428 10.4532 21.8359 10.6275L20.6984 9.49003C20.6225 9.41407 20.5798 9.31105 20.5798 9.20362C20.5798 9.0962 20.6225 8.99318 20.6984 8.91722C20.7744 8.84126 20.8774 8.79858 20.9848 8.79858C21.0923 8.79858 21.1953 8.84126 21.2713 8.91722L22.4087 10.0547Z" fill="black"/>
<path d="M16.6766 4.89531C16.639 4.93298 16.5943 4.96287 16.5452 4.98326C16.496 5.00365 16.4434 5.01415 16.3902 5.01415C16.3369 5.01415 16.2843 5.00365 16.2351 4.98326C16.186 4.96287 16.1413 4.93298 16.1037 4.89531L14.9662 3.75781C15.1406 3.55096 15.3322 3.35933 15.5391 3.185L16.6766 4.3225C16.7142 4.36008 16.7441 4.40472 16.7645 4.45386C16.7849 4.50301 16.7954 4.5557 16.7954 4.6089C16.7954 4.66211 16.7849 4.7148 16.7645 4.76394C16.7441 4.81309 16.7142 4.85773 16.6766 4.89531Z" fill="black"/>
<path d="M11.2393 5.3836L8.29321 2.43747C8.17959 2.32386 8.03483 2.24648 7.87723 2.21513C7.71963 2.18379 7.55628 2.19988 7.40782 2.26136C7.25937 2.32285 7.13248 2.42698 7.0432 2.56058C6.95392 2.69418 6.90627 2.85125 6.90625 3.01193L6.90109 3.87918C4.20751 4.33006 2.37085 5.39251 1.44211 7.03697C0.315203 9.03209 0.820221 11.3256 1.44251 12.8984C1.47242 12.9741 1.52441 13.0391 1.59172 13.0849C1.65904 13.1307 1.73857 13.1553 1.81999 13.1553C1.83971 13.1553 1.8594 13.1539 1.8789 13.1509C1.96951 13.1378 2.05301 13.0943 2.11582 13.0277C2.17863 12.9611 2.21705 12.8752 2.22485 12.784C2.32225 11.658 3.3099 10.0751 4.57328 9.01999C5.41633 8.31619 6.24866 7.96231 6.90625 8.02698V8.90416C6.90626 9.06484 6.95392 9.22191 7.0432 9.35551C7.13248 9.48911 7.25937 9.59323 7.40783 9.65472C7.55628 9.7162 7.71964 9.73229 7.87723 9.70094C8.03483 9.66959 8.17959 9.59222 8.29321 9.4786L11.2393 6.53247C11.3915 6.38 11.4769 6.17341 11.4769 5.95803C11.4769 5.74265 11.3914 5.53606 11.2393 5.3836Z" fill="#E53935"/>
<path d="M24.5575 13.2295C24.5238 13.1444 24.4624 13.0731 24.3832 13.0273C24.304 12.9815 24.2116 12.9637 24.121 12.977C24.0304 12.9902 23.947 13.0337 23.8842 13.1003C23.8215 13.1669 23.783 13.2528 23.7751 13.344C23.6775 14.4701 22.6897 16.0532 21.4261 17.1081C20.5835 17.8119 19.7507 18.1658 19.0937 18.1009V17.2238C19.0938 17.0631 19.0461 16.906 18.9568 16.7724C18.8676 16.6388 18.7407 16.5346 18.5922 16.4731C18.4437 16.4116 18.2804 16.3956 18.1228 16.4269C17.9652 16.4583 17.8204 16.5357 17.7068 16.6493L14.7607 19.5954C14.6084 19.7479 14.5229 19.9545 14.5229 20.1699C14.5229 20.3853 14.6084 20.5919 14.7607 20.7444L17.7068 23.6905C17.8204 23.8041 17.9652 23.8815 18.1228 23.9129C18.2804 23.9442 18.4438 23.9282 18.5922 23.8667C18.7407 23.8052 18.8676 23.701 18.9569 23.5674C19.0461 23.4338 19.0938 23.2767 19.0937 23.116L19.0989 22.2487C21.7923 21.7978 23.6291 20.7354 24.5579 19.0912C25.6846 17.096 25.1796 14.8023 24.5575 13.2295Z" fill="#8BC34A"/>
<path d="M7.3125 21.5312C8.88306 21.5312 10.1562 20.2581 10.1562 18.6875C10.1562 17.1169 8.88306 15.8438 7.3125 15.8438C5.74194 15.8438 4.46875 17.1169 4.46875 18.6875C4.46875 20.2581 5.74194 21.5312 7.3125 21.5312Z" fill="#EEEEEE"/>
</g>
<defs>
<clipPath id="clip0_7_3501">
<rect width="26" height="26" fill="white"/>
</clipPath>
</defs>
</svg>
