<svg width="29" height="29" viewBox="0 0 29 29" fill="none" xmlns="http://www.w3.org/2000/svg">
<path d="M18.0613 2.24252L8.56239 27.582L7.13976 26.7612C7.01389 26.6846 6.93184 26.5259 6.93184 26.3016L6.8771 7.63761C6.8771 7.17797 7.19447 6.62532 7.59392 6.39552C9.08221 5.42158 10.5541 4.50778 12.0041 3.6761C13.3994 2.86627 14.7782 2.1276 16.1298 1.46551C16.3322 1.35063 16.5128 1.33968 16.6441 1.41629L18.0613 2.24252Z" fill="#9EA9C9"/>
<path d="M13.4238 4.4972C14.8214 3.69029 16.1983 2.95233 17.5533 2.29014C17.9498 2.06123 18.2721 2.24491 18.2734 2.70049L18.3263 21.3654C18.3276 21.8208 18.0074 22.3756 17.6109 22.6046C16.1708 23.5533 14.737 24.4402 13.3103 25.264C11.8908 26.0835 10.4783 26.8405 9.07231 27.5343C8.67583 27.7632 8.35351 27.5793 8.35222 27.124L8.29931 8.45904C8.29801 8.00346 8.61824 7.44881 9.01471 7.2199C10.5043 6.24408 11.9751 5.33361 13.4238 4.4972Z" fill="#4C5C75"/>
<path d="M17.9744 21.4974C17.9744 21.7655 17.7829 22.1048 17.5531 22.2361L9.0172 27.1661C8.95702 27.1989 8.89683 27.2208 8.85305 27.2208C8.71626 27.2208 8.69986 27.0621 8.69986 26.991L8.69438 25.2017L8.67795 19.3963L8.6506 8.32157C8.64512 8.05894 8.84213 7.72514 9.07193 7.58287L10.511 6.75667L10.5547 6.86608C10.6259 7.0357 10.7681 7.13422 10.9432 7.13422C11.0472 7.13422 11.1512 7.10139 11.2551 7.04118L15.43 4.62817C15.6982 4.47495 15.9334 4.15761 16.0155 3.82382L16.0921 3.53383L17.6078 2.6529C17.6679 2.62007 17.7172 2.60364 17.7665 2.60364C17.9033 2.60364 17.9251 2.76778 17.9251 2.83344L17.9525 14.0395L17.9689 19.8504L17.9744 21.4974Z" fill="white"/>
<path d="M11.6278 6.39175C11.7052 6.25846 11.7054 6.11412 11.6283 6.06938C11.5512 6.02463 11.426 6.09642 11.3486 6.22971C11.2713 6.36301 11.2711 6.50734 11.3482 6.55209C11.4253 6.59684 11.5505 6.52505 11.6278 6.39175Z" fill="#4C5C75"/>
<path d="M12.3596 5.58877C12.4688 5.52575 12.5578 5.57624 12.5582 5.70193C12.5586 5.82738 12.4701 5.98059 12.3609 6.04362C12.2515 6.10677 12.1625 6.05604 12.1621 5.93059C12.1618 5.8049 12.2503 5.65193 12.3596 5.58877Z" fill="#9EA9C9"/>
<path d="M15.1636 4.03217L15.164 4.38533L12.9513 5.66287L12.9508 5.30971L15.1636 4.03217Z" fill="#9EA9C9"/>
<path d="M16.5887 2.40996C16.5697 2.44041 16.5355 2.46703 16.4936 2.48986C16.2843 2.61163 15.9456 2.61163 15.7402 2.48986C15.6983 2.46703 15.6679 2.44041 15.6412 2.40996C15.5347 2.29581 15.5689 2.15121 15.7364 2.05227C15.9418 1.93049 16.2843 1.93049 16.4936 2.05227C16.661 2.1474 16.6953 2.292 16.5887 2.40996Z" fill="white"/>
<path d="M16.5887 2.40997C16.5697 2.44042 16.5355 2.46703 16.4936 2.48986C16.2843 2.61163 15.9456 2.61163 15.7402 2.48986C15.6983 2.46703 15.6679 2.44042 15.6412 2.40997C15.6641 2.37952 15.6945 2.35288 15.7364 2.33005C15.9418 2.21209 16.2843 2.21209 16.4936 2.33005C16.5355 2.35288 16.5697 2.37952 16.5887 2.40997Z" fill="#1D2943"/>
<path d="M8.01842 10.2263L8.01435 11.7791C8.01354 11.8776 7.97934 11.946 7.92316 11.9786L7.68917 12.1151C7.74454 12.0833 7.77956 12.0149 7.77956 11.9164L7.78444 10.3636C7.78444 10.1681 7.64765 9.93038 7.47665 9.83185C7.39115 9.783 7.31461 9.77892 7.25842 9.80987L7.49323 9.67257C7.54941 9.64162 7.62595 9.6457 7.71145 9.69455C7.88163 9.79308 8.01924 10.0317 8.01842 10.2263Z" fill="#111D33"/>
<path d="M7.4768 9.83213C7.39154 9.7829 7.31501 9.7788 7.25868 9.80971C7.20287 9.84211 7.16831 9.91071 7.16803 10.0081L7.16363 11.5607C7.16307 11.7566 7.30039 11.9945 7.4704 12.0926C7.55565 12.1419 7.63271 12.1469 7.68904 12.1153C7.74485 12.0835 7.77941 12.0149 7.77969 11.9164L7.78409 10.3638C7.78465 10.1684 7.64732 9.93058 7.4768 9.83213Z" fill="#4C5C75"/>
<path d="M8.01028 13.0648L8.00621 14.6176C8.0054 14.7161 7.9712 14.7837 7.91502 14.8163L7.68103 14.9536C7.7364 14.921 7.77142 14.8534 7.77142 14.7549L7.7763 13.2021C7.7763 13.0067 7.63951 12.7689 7.46851 12.6704C7.38382 12.6207 7.30728 12.6166 7.25028 12.6476L7.48508 12.5111C7.54126 12.4794 7.61781 12.4842 7.7033 12.5331C7.87349 12.6316 8.0111 12.8694 8.01028 13.0648Z" fill="#111D33"/>
<path d="M7.46876 12.6703C7.38349 12.6211 7.30696 12.6164 7.25063 12.6479C7.19482 12.6803 7.16026 12.7489 7.15998 12.8463L7.15558 14.3989C7.15502 14.5948 7.29235 14.8327 7.46235 14.9308C7.5476 14.9801 7.62466 14.9851 7.68099 14.9536C7.7368 14.9212 7.77136 14.8531 7.77164 14.7546L7.77604 13.202C7.7766 13.0066 7.63928 12.7688 7.46876 12.6703Z" fill="#4C5C75"/>
<path d="M17.3828 10.6087L14.5977 15.4238L14.1928 15.1885C14.1107 15.1393 14.056 15.0299 14.056 14.8821L14.0505 12.4472C14.0505 12.1463 14.2584 11.7851 14.5211 11.6319L16.6441 10.4063C16.7754 10.3297 16.8903 10.3242 16.9779 10.3734L17.3828 10.6087Z" fill="#5094FF"/>
<path d="M17.046 10.6411C17.3071 10.4904 17.5176 10.6132 17.5185 10.9132L17.5254 13.3469C17.5262 13.647 17.3171 14.0121 17.056 14.1628L14.9331 15.3884C14.672 15.5392 14.4615 15.4164 14.4606 15.1164L14.4537 12.6826C14.4529 12.3826 14.662 12.0175 14.9231 11.8668L17.046 10.6411Z" fill="#57B3FE"/>
<path d="M17.0158 12.6607C17.0158 12.9196 16.8335 13.2361 16.6081 13.3656L15.4667 14.0227C15.2413 14.1522 15.059 14.0515 15.059 13.7877C15.059 13.5911 15.1645 13.3656 15.3132 13.2074C15.3276 12.9772 15.4907 12.7038 15.6921 12.5887C15.7161 12.5743 15.7449 12.5599 15.7736 12.5503C15.8551 12.3585 15.999 12.1811 16.1669 12.0851C16.4307 11.9317 16.6417 12.0564 16.6417 12.3585V12.4113C16.8479 12.3105 17.011 12.4161 17.0158 12.6607Z" fill="white"/>
<path d="M12.896 18.1871L10.1109 23.0022L9.70599 22.7669C9.6239 22.7176 9.5692 22.6137 9.5692 22.4659L9.56372 20.0256C9.56372 19.7301 9.77165 19.3635 10.0343 19.2103L12.1573 17.9846C12.2886 17.9135 12.4035 17.9026 12.4911 17.9518L12.896 18.1871Z" fill="#566DF9"/>
<path d="M10.4477 22.9687C10.1866 23.1194 9.97604 22.9995 9.97519 22.6995L9.96828 20.2629C9.96743 19.9629 10.1766 19.5978 10.4377 19.4471L12.5606 18.2214C12.8217 18.0707 13.0322 18.1934 13.0331 18.4935L13.04 20.93C13.0408 21.23 12.8316 21.5923 12.5706 21.7431L10.4477 22.9687Z" fill="#8FABFE"/>
<path d="M12.8796 13.2078L10.0999 18.0174L9.69504 17.7821C9.60751 17.7329 9.55825 17.6289 9.55825 17.4812L9.55277 15.0463C9.54729 14.7453 9.7607 14.3787 10.0179 14.231L12.1409 13.0053C12.2722 12.9287 12.3926 12.9232 12.4747 12.9725L12.8796 13.2078Z" fill="#E93565"/>
<path d="M12.5464 13.2389C12.8075 13.0882 13.0181 13.211 13.0189 13.511L13.0258 15.9447C13.0267 16.2447 12.8175 16.6098 12.5564 16.7606L10.4335 17.9862C10.1725 18.137 9.96191 18.0142 9.96106 17.7142L9.95416 15.2804C9.95331 14.9804 10.1625 14.6153 10.4236 14.4646L12.5464 13.2389Z" fill="#F45170"/>
<path d="M12.8686 8.2231L10.0835 13.0327L9.67864 12.7974C9.59655 12.7482 9.54185 12.6442 9.54185 12.4965L9.53637 10.0616C9.53637 9.76065 9.7443 9.39402 10.0069 9.2463L12.1299 8.02065C12.2613 7.94404 12.3762 7.93856 12.4637 7.98782L12.8686 8.2231Z" fill="#7E5AF2"/>
<path d="M12.5323 8.25369C12.7934 8.10295 13.0039 8.22574 13.0048 8.52575L13.0117 10.9623C13.0126 11.2623 12.8034 11.6246 12.5423 11.7753L10.4194 13.001C10.1583 13.1517 9.94778 13.0318 9.94693 12.7318L9.94002 10.2952C9.93917 9.99518 10.1483 9.63008 10.4094 9.47934L12.5323 8.25369Z" fill="#B28AFD"/>
<path d="M17.3937 15.5934L14.6141 20.4031L14.2092 20.1678C14.1217 20.1186 14.0724 20.0146 14.0724 19.8668L14.0614 17.4319C14.0614 17.131 14.2694 16.7644 14.532 16.6167L16.6551 15.391C16.7864 15.3144 16.9067 15.3089 16.9888 15.3582L17.3937 15.5934Z" fill="#DEDFFB"/>
<path d="M17.0601 15.6236C17.3212 15.4728 17.5317 15.5956 17.5326 15.8956L17.5395 18.3322C17.5404 18.6322 17.3312 18.9945 17.0701 19.1452L14.9472 20.3709C14.6861 20.5216 14.4756 20.4016 14.4747 20.1016L14.4678 17.6651C14.467 17.3651 14.6761 17 14.9372 16.8492L17.0601 15.6236Z" fill="#F3F1FC"/>
<path d="M17.3664 5.62404L14.5813 10.4391L14.1818 10.2038C14.0943 10.1546 14.045 10.0506 14.045 9.89743L14.0341 7.46252C14.0341 7.16158 14.242 6.79496 14.5046 6.64724L16.6277 5.42159C16.759 5.34498 16.8794 5.3395 16.9615 5.38876L17.3664 5.62404Z" fill="#FEBC1F"/>
<path d="M17.0319 5.65585C17.2929 5.50511 17.5035 5.6279 17.5043 5.92792L17.5112 8.36447C17.5121 8.66448 17.3029 9.02677 17.0418 9.17751L14.919 10.4032C14.6579 10.5539 14.4473 10.4339 14.4465 10.1339L14.4396 7.69736C14.4387 7.39734 14.6479 7.03224 14.909 6.8815L17.0319 5.65585Z" fill="#FFD06C"/>
<path d="M16.001 16.9645C16.496 16.6787 16.9018 16.908 16.9034 17.4781C16.9051 18.0482 16.5019 18.7446 16.0069 19.0303C15.5113 19.3165 15.1055 19.0872 15.1039 18.5171C15.1023 17.947 15.5054 17.2506 16.001 16.9645Z" fill="#F45170"/>
<path d="M15.7059 17.6362L16.4889 17.7169L15.709 18.7007L15.7059 17.6362Z" fill="white"/>
<path d="M10.9612 15.2865C10.9916 15.2689 11.022 15.2662 11.0436 15.2834C11.0832 15.3128 11.0795 15.3944 11.0323 15.467L10.6193 16.1163L11.0366 16.284C11.082 16.3031 11.0882 16.379 11.0489 16.4562C11.0273 16.4982 10.9958 16.53 10.9642 16.5482C10.9405 16.5619 10.9149 16.5676 10.8931 16.5598L10.3809 16.3493C10.3571 16.338 10.3432 16.312 10.3431 16.2757C10.343 16.2372 10.3567 16.1953 10.3803 16.1589L10.8897 15.3587C10.9103 15.3261 10.9358 15.3011 10.9612 15.2865Z" fill="white"/>
<path d="M11.8537 14.3612C11.8693 14.3522 11.8851 14.3469 11.9003 14.3462C11.9556 14.3438 11.9794 14.4049 11.954 14.4832L11.2255 16.7333C11.2059 16.7923 11.1665 16.84 11.1251 16.8639L11.0797 16.8788C11.0244 16.8835 11.0005 16.8201 11.026 16.7441L11.7545 14.4917C11.773 14.4348 11.8124 14.3851 11.8537 14.3612Z" fill="white"/>
<path d="M12.0144 14.6784C12.0402 14.6635 12.0662 14.6588 12.0869 14.6675L12.5991 14.878C12.6228 14.887 12.6367 14.913 12.6368 14.9515C12.6369 14.9878 12.6232 15.0297 12.5996 15.0683L12.0883 15.8697C12.0686 15.9015 12.043 15.9254 12.0174 15.9402C11.9858 15.9584 11.9562 15.9619 11.9344 15.945C11.8948 15.9134 11.9005 15.8306 11.9457 15.7591L12.3587 15.1121L11.9434 14.941C11.8979 14.9219 11.8918 14.846 11.9311 14.7711C11.9525 14.729 11.9834 14.6963 12.0144 14.6784Z" fill="white"/>
<path d="M18.0619 21.5138C18.0619 21.7874 17.8704 22.1321 17.6351 22.2689L8.93514 27.2919C8.87496 27.3248 8.80927 27.3467 8.76552 27.3467C8.62873 27.3467 8.6123 27.188 8.6123 27.1168L8.60682 25.6121L18.0565 20.1569L18.0619 21.5138Z" fill="#4C5C75"/>
<path d="M13.8045 23.281C14.0695 23.128 14.2883 23.2473 14.2892 23.5518C14.2901 23.8617 14.0727 24.2329 13.8077 24.3859L12.8203 24.9559C12.5553 25.1089 12.3365 24.9896 12.3357 24.6797C12.3348 24.3752 12.5522 24.0041 12.8172 23.8511L13.8045 23.281Z" fill="#9EA9C9"/>
<path d="M12.408 10.2551L12.2192 10.4025C12.202 10.5036 12.1708 10.6067 12.1295 10.7084L12.2392 10.8247L12.0677 11.1219L12.0336 11.181L12.0246 11.1789L11.8771 11.1456C11.8106 11.2318 11.7353 11.3103 11.6561 11.3778L11.6234 11.6136L11.3339 11.7807L11.3 11.5834C11.2197 11.608 11.1466 11.6152 11.0774 11.6073L11.0024 11.7111L10.9471 11.7877L10.9217 11.8229L10.7156 11.7044L10.8248 11.4617C10.801 11.4316 10.7807 11.3972 10.7641 11.3585C10.7584 11.3452 10.7532 11.3314 10.7484 11.3171C10.7423 11.2992 10.7369 11.2805 10.7323 11.261L10.5447 11.3309L10.5439 11.0355L10.5437 10.9977L10.57 10.977L10.7311 10.8501C10.7497 10.7481 10.7804 10.6453 10.8222 10.5433L10.712 10.4267L10.9167 10.0722L10.9739 10.0849L11.0115 10.0933L11.0731 10.107C11.1421 10.0188 11.215 9.94225 11.2951 9.8743L11.3279 9.6385L11.6173 9.47139L11.6513 9.66868C11.7306 9.64458 11.8061 9.63548 11.8729 9.64529L12.0271 9.43225L12.062 9.44907L12.2356 9.5471L12.1269 9.79006C12.1687 9.8438 12.2003 9.91062 12.219 9.99108L12.2489 9.98008L12.2993 9.96156L12.407 9.92198L12.408 10.2551ZM11.4772 11.099C11.7038 10.9681 11.8883 10.6497 11.8876 10.3876C11.8868 10.1267 11.7011 10.0208 11.4745 10.1517C11.246 10.2837 11.0629 10.6023 11.0637 10.8633C11.0644 11.1254 11.2486 11.2309 11.4772 11.099Z" fill="white"/>
<path d="M5.49467 7.90864L4.76721 7.48589L4.2334 6.78857L5.23378 6.75775L5.49467 7.90864Z" fill="#5EC363"/>
<path d="M7.57749 1.87591L3.7473 7.74159L3.21656 7.43518C3.16183 7.40235 3.129 7.34761 3.1126 7.26556C2.92655 6.21497 2.80619 5.16441 2.74597 4.38196C2.72957 4.16308 2.87184 3.86214 3.09617 3.71443C4.28352 2.93743 5.5256 2.22063 6.79504 1.57498C6.89353 1.52575 6.98106 1.52575 7.04128 1.56402L7.57749 1.87591Z" fill="#72D561"/>
<path d="M5.48068 2.88681C6.09766 2.5306 6.71471 2.19696 7.33194 1.88584C7.54098 1.78086 7.69879 1.89886 7.68347 2.14772C7.61583 3.23673 7.50013 4.33667 7.33638 5.44703C7.30445 5.6605 7.16224 5.88942 6.98905 5.99918C6.66572 6.2048 6.34426 6.40341 6.0242 6.59523L5.49468 7.90865L4.96086 7.21133C4.63747 7.39207 4.31641 7.56443 3.99721 7.72922C3.82254 7.81814 3.67856 7.755 3.64647 7.57686C3.47927 6.64241 3.35632 5.68078 3.2809 4.69063C3.26375 4.46053 3.42037 4.1599 3.62979 4.02328C4.24677 3.62183 4.86369 3.24303 5.48068 2.88681Z" fill="#78E75A"/>
<path d="M6.33552 4.56347C6.26049 4.50379 6.15363 4.51345 6.01721 4.59189C5.88136 4.67033 5.7745 4.78402 5.70004 4.9301C5.62615 5.07561 5.5892 5.22965 5.58977 5.38767C5.58977 5.54626 5.62785 5.65653 5.70231 5.71621C5.77734 5.77589 5.8842 5.76623 6.02062 5.68779C6.15647 5.60935 6.26333 5.4951 6.33779 5.34959C6.41112 5.20407 6.44863 5.0506 6.44807 4.89202C6.4475 4.734 6.40941 4.62316 6.33552 4.56347ZM5.84669 5.48487C5.80576 5.44508 5.78416 5.3746 5.78416 5.27512C5.78359 5.17622 5.80462 5.08186 5.84555 4.9949C5.88648 4.90793 5.94445 4.84256 6.01778 4.8005C6.09111 4.75787 6.14908 4.75617 6.19058 4.79539C6.23207 4.83517 6.2531 4.90509 6.25367 5.00399C6.25367 5.10346 6.23321 5.19839 6.19171 5.28536C6.15136 5.37119 6.09338 5.43712 6.02005 5.47975C5.94616 5.52238 5.88818 5.52352 5.84669 5.48487Z" fill="white"/>
<path d="M6.11157 3.52043C6.11157 3.54373 6.10532 3.57102 6.09281 3.60114L5.03329 6.17605C5.0242 6.19821 5.01226 6.21925 4.99748 6.238C4.98271 6.25733 4.96679 6.27154 4.95031 6.2812C4.92643 6.29541 4.90426 6.29769 4.88607 6.28859C4.86732 6.27893 4.85822 6.25847 4.85822 6.22891C4.85822 6.20958 4.8622 6.18912 4.87186 6.16638L5.93877 3.575C5.95696 3.53009 5.98311 3.49769 6.01664 3.47837C6.0445 3.46245 6.06667 3.45847 6.08485 3.46529C6.10248 3.47211 6.11157 3.4903 6.11157 3.52043Z" fill="white"/>
<path d="M5.26179 4.04563C5.18733 3.98538 5.0799 3.99504 4.94405 4.07348C4.80763 4.15249 4.70077 4.26617 4.62688 4.41225C4.55298 4.55777 4.51547 4.71124 4.51604 4.86925C4.5166 5.02784 4.55469 5.13811 4.62915 5.19836C4.70361 5.25805 4.81104 5.24838 4.94689 5.16938C5.08331 5.09094 5.19017 4.97725 5.26407 4.83174C5.33796 4.68623 5.37547 4.53219 5.3749 4.3736C5.37433 4.21558 5.33682 4.10531 5.26179 4.04563ZM4.77353 4.96645C4.73203 4.92666 4.711 4.85675 4.71043 4.75728C4.71043 4.65781 4.7309 4.56345 4.77239 4.47648C4.81275 4.39008 4.87072 4.32471 4.94462 4.28208C5.01794 4.23945 5.07649 4.23775 5.11742 4.27697C5.15891 4.31676 5.17994 4.38667 5.17994 4.48615C5.18051 4.58562 5.15948 4.67997 5.11912 4.76694C5.07819 4.85334 5.02022 4.91871 4.94632 4.96134C4.87243 5.00397 4.81445 5.00567 4.77353 4.96645Z" fill="white"/>
<path d="M26.0718 2.22607L19.8888 10.3844L19.2541 10.0123C19.1447 9.94663 19.0735 9.81531 19.0735 9.62929L19.0626 6.01795C19.0626 5.63493 19.3362 5.16984 19.6645 4.97835L24.9994 1.89778C25.169 1.79929 25.3222 1.79382 25.4316 1.854L26.0718 2.22607Z" fill="#BF7D5A"/>
<path d="M25.6364 2.26939C25.9715 2.0759 26.244 2.23117 26.2451 2.60963L26.2553 6.22158C26.2564 6.60004 25.9857 7.06891 25.6505 7.2624L20.3162 10.3422C19.9869 10.5323 19.7144 10.3771 19.7133 9.9986L19.7031 6.38664C19.702 6.00818 19.9727 5.53932 20.3021 5.34916L25.6364 2.26939Z" fill="#DBA660"/>
<path d="M20.0491 10.176C19.9727 10.176 19.9611 10.0646 19.9609 9.99787L19.9505 6.3859C19.9497 6.09445 20.1718 5.71019 20.4258 5.5635L25.7602 2.48368C25.8358 2.43994 25.8863 2.43341 25.9095 2.43341C25.9857 2.43341 25.9972 2.54409 25.9975 2.61031L26.0079 6.22229C26.0086 6.51374 25.7839 6.89968 25.5267 7.04807L20.1924 10.1279C20.1199 10.1697 20.0715 10.176 20.0491 10.176Z" fill="white"/>
<path d="M22.91 5.19318L25.6633 3.60361L25.6622 3.23584L22.91 4.82482V5.19318Z" fill="#E3E7F0"/>
<path d="M22.91 6.02893L25.6656 4.43802L25.6646 4.07025L22.91 5.66057V6.02893Z" fill="#E3E7F0"/>
<path d="M22.91 7.70036L24.448 6.81241L24.447 6.44464L22.91 7.332V7.70036Z" fill="#E3E7F0"/>
<path d="M22.91 6.86461L25.668 5.27231L25.6669 4.90454L22.91 6.49625V6.86461Z" fill="#E3E7F0"/>
<path d="M21.4897 7.24824L22.5155 6.6568C22.4922 7.31077 22.0347 8.08531 21.4743 8.40942C21.2105 8.56169 20.9615 8.59322 20.767 8.50021L21.4897 7.24824Z" fill="#78E75A"/>
<path d="M21.5127 5.9802C21.7746 5.84161 22.0205 5.82318 22.2079 5.92997C22.3959 6.03696 22.5041 6.25575 22.5152 6.55131L21.5159 7.12824L21.5127 5.9802Z" fill="#DF3260"/>
<path d="M21.4216 6.03204L21.4249 7.2113L20.7022 8.46327C20.5251 8.34316 20.4267 8.11348 20.4259 7.80752C20.4234 7.16399 20.8665 6.3799 21.4216 6.03204Z" fill="#986FF9"/>
<path d="M25.946 24.1402V24.9446C25.946 25.1087 25.842 25.2784 25.6177 25.4042L22.1158 27.4397C21.6726 27.6968 20.9613 27.6968 20.5126 27.4397L16.9833 25.4042C16.7645 25.2784 16.6496 25.1033 16.6496 24.9391L16.6551 24.1348L25.946 24.1402Z" fill="#DEDFFB"/>
<path d="M25.6164 23.6732C26.0587 23.9286 26.061 24.3425 25.6216 24.5979L22.1135 26.6365C21.6741 26.8919 20.9595 26.8919 20.5172 26.6365L16.9862 24.5979C16.5439 24.3425 16.5416 23.9286 16.981 23.6732L20.4891 21.6346C20.9285 21.3792 21.6431 21.3792 22.0854 21.6346L25.6164 23.6732Z" fill="#F3F1FC"/>
<path d="M23.9926 23.5438L23.5056 23.5055V22.8489L22.8381 22.4604L22.1869 22.7504C22.0447 22.7012 21.8914 22.6574 21.7328 22.63L21.6452 22.1759H20.6931L20.6001 22.6082C20.4141 22.63 20.2335 22.6738 20.0749 22.7286L19.4949 22.4604L18.8218 22.8489V23.5055L18.8273 23.511L18.3239 23.5438L18.3184 24.0965V24.5451L19.0681 24.5944L18.8109 24.7859V25.2346L19.4784 25.6285L20.1733 25.3112C20.3047 25.3495 20.4305 25.3768 20.5673 25.3933L20.6713 25.913H21.6233L21.7382 25.3714C21.8532 25.3495 21.968 25.3221 22.072 25.2838L22.8216 25.6285L23.4947 25.2346V24.7859L23.2375 24.5999L23.9926 24.5397V23.5438ZM22.0282 24.3263C21.5468 24.6053 20.7643 24.6053 20.2828 24.3263C20.1679 24.2606 20.0858 24.184 20.0256 24.1019C20.0858 24.0199 20.1733 23.9433 20.2882 23.8776C20.7697 23.5985 21.5522 23.5985 22.0337 23.8776C22.1431 23.9433 22.2307 24.0199 22.2909 24.0965C22.2307 24.1785 22.1431 24.2551 22.0282 24.3263Z" fill="#DBA660"/>
<path d="M18.8205 22.8506L18.8224 23.5071L19.2766 23.8456L19.2747 23.1891L18.8205 22.8506Z" fill="#AA6256"/>
<path d="M22.9593 23.2514L22.9612 23.9079L23.5067 23.5071L23.5048 22.8506L22.9593 23.2514Z" fill="#AA6256"/>
<path d="M19.9237 23.822L19.9253 24.3851C19.9248 24.2009 20.0462 24.0164 20.2892 23.8761C20.7721 23.5973 21.5523 23.5986 22.032 23.8774C22.2709 24.0162 22.3908 24.198 22.3913 24.3799L22.3897 23.8169C22.3892 23.6349 22.2693 23.4532 22.0304 23.3144C21.5507 23.0356 20.7705 23.0343 20.2876 23.3131C20.0446 23.4534 19.9232 23.6378 19.9237 23.822Z" fill="#BF7D5A"/>
<path d="M23.9899 24.0916L23.9917 24.5424L23.9948 24.1988L23.9929 23.5424L23.9899 24.0916Z" fill="#D4D6D6"/>
<path d="M18.3189 24.096L18.3208 24.5468L19.1072 24.5988L19.1053 24.148L18.3189 24.096Z" fill="#AA6256"/>
<path d="M23.0516 24.1598L23.0534 24.6106L23.9917 24.5423L23.9898 24.0916L23.0516 24.1598Z" fill="#AA6256"/>
<path d="M22.907 24.3528L22.9089 25.0093C22.9681 24.9484 23.0198 24.8831 23.0534 24.8163L23.0516 24.1599C23.0179 24.2266 22.9663 24.292 22.907 24.3528Z" fill="#BF7D5A"/>
<path d="M19.1053 24.1479L19.1072 24.8044C19.1554 24.8979 19.2266 24.984 19.3158 25.0686L19.314 24.4122C19.2248 24.3275 19.1535 24.2415 19.1053 24.1479Z" fill="#BF7D5A"/>
<path d="M21.7379 24.9183L21.7397 25.3691C21.8551 25.3498 21.9681 25.3201 22.0733 25.286L22.0715 24.8352C21.9662 24.8693 21.8533 24.899 21.7379 24.9183Z" fill="#BF7D5A"/>
<path d="M20.1699 24.8619L20.1718 25.3127C20.3022 25.3498 20.4328 25.378 20.5685 25.3944L20.5666 24.9436C20.4309 24.9272 20.3004 24.8991 20.1699 24.8619Z" fill="#BF7D5A"/>
<path d="M18.8096 24.7862L18.8115 25.237L19.4807 25.6259L19.4788 25.1751L18.8096 24.7862Z" fill="#BF7D5A"/>
<path d="M19.4788 25.1751L19.4807 25.6259L20.1718 25.3127L20.1699 24.8619L19.4788 25.1751Z" fill="#AA6256"/>
<path d="M22.8204 25.1751L22.8222 25.6259L23.4958 25.237L23.4939 24.7862L22.8204 25.1751Z" fill="#BF7D5A"/>
<path d="M22.0715 24.8352L22.0733 25.286L22.8222 25.6259L22.8204 25.1751L22.0715 24.8352Z" fill="#AA6256"/>
<path d="M20.5666 24.9435L20.5685 25.3943L20.6706 25.9124L20.6688 25.4616L20.5666 24.9435Z" fill="#AA6256"/>
<path d="M21.6195 25.4601L21.6213 25.9109L21.7397 25.3691L21.7378 24.9183L21.6195 25.4601Z" fill="#AA6256"/>
<path d="M18.8096 24.7862L19.314 24.4122C19.2248 24.3276 19.1535 24.2415 19.1053 24.148L18.3189 24.096L18.322 23.5438L19.068 23.4919C19.1071 23.3865 19.1794 23.2826 19.2747 23.1891L18.8205 22.8507L19.4941 22.4618L20.0743 22.7275C20.236 22.6725 20.4156 22.631 20.5977 22.6087L20.6924 22.1753L21.6431 22.1768L21.7328 22.631C21.8941 22.6592 22.045 22.6993 22.1882 22.7527L22.8356 22.4618L23.5048 22.8507L22.9593 23.2514C23.0255 23.3257 23.0712 23.4028 23.1015 23.48L23.9929 23.5424L23.9899 24.0916L23.0516 24.1598C23.0179 24.2266 22.9663 24.2919 22.907 24.3528L23.4939 24.7862L22.8204 25.1751L22.0715 24.8352C21.9662 24.8693 21.8533 24.899 21.7379 24.9183L21.6195 25.4601L20.6688 25.4616L20.5666 24.9435C20.4309 24.9272 20.3004 24.899 20.1699 24.8619L19.4788 25.1751L18.8096 24.7862ZM22.0269 24.3239C22.5098 24.0451 22.5102 23.5932 22.0304 23.3144C21.5507 23.0356 20.7705 23.0343 20.2876 23.3131C19.8047 23.5919 19.8021 24.0451 20.2819 24.3239C20.7616 24.6027 21.5441 24.6027 22.0269 24.3239Z" fill="#DBA660"/>
<path d="M20.6688 25.4616L20.6706 25.9124L21.6214 25.9109L21.6195 25.4601L20.6688 25.4616Z" fill="#BF7D5A"/>
</svg>
