<svg width="34" height="34" viewBox="0 0 34 34" fill="none" xmlns="http://www.w3.org/2000/svg">
<path d="M17 15.0609C13.5668 15.0609 10.7777 12.2719 10.7777 8.83866C10.7777 5.40546 13.5668 2.61639 17 2.61639C20.4332 2.61639 23.2223 5.40546 23.2223 8.83866C23.2223 12.2719 20.4332 15.0609 17 15.0609ZM17 3.47303C14.0449 3.47303 11.641 5.87694 11.641 8.83202C11.641 11.7871 14.0449 14.191 17 14.191C19.9551 14.191 22.359 11.7871 22.359 8.83202C22.359 5.87694 19.9551 3.47303 17 3.47303Z" fill="white"/>
<path d="M6.5543 31.2973C3.12109 31.2973 0.332031 28.5082 0.332031 25.075C0.332031 21.6418 3.12109 18.8527 6.5543 18.8527C9.9875 18.8527 12.7766 21.6418 12.7766 25.075C12.7766 28.5082 9.98086 31.2973 6.5543 31.2973ZM6.5543 19.7094C3.59922 19.7094 1.19531 22.1133 1.19531 25.0683C1.19531 28.0234 3.59922 30.4273 6.5543 30.4273C9.50937 30.4273 11.9133 28.0234 11.9133 25.0683C11.9133 22.1133 9.50937 19.7094 6.5543 19.7094Z" fill="white"/>
<path d="M27.4457 31.2973C24.0125 31.2973 21.2234 28.5082 21.2234 25.075C21.2234 21.6418 24.0125 18.8527 27.4457 18.8527C30.8789 18.8527 33.668 21.6418 33.668 25.075C33.668 28.5082 30.8789 31.2973 27.4457 31.2973ZM27.4457 19.7094C24.4906 19.7094 22.0867 22.1133 22.0867 25.0683C22.0867 28.0234 24.4906 30.4273 27.4457 30.4273C30.4008 30.4273 32.8047 28.0234 32.8047 25.0683C32.8047 22.1133 30.4008 19.7094 27.4457 19.7094Z" fill="white"/>
<path d="M19.4803 14.0474L20.692 13.2556L24.9783 19.8142L23.7666 20.6061L19.4803 14.0474Z" fill="white"/>
<path d="M9.03259 19.7634L13.2971 13.2381L14.5365 14.0481L10.2721 20.5735L9.03259 19.7634Z" fill="white"/>
<path d="M12.3449 24.5902H21.6551V26.0711H12.3449V24.5902Z" fill="white"/>
<path d="M14.4766 17.9629C14.7422 17.9098 15.2734 17.8699 15.7781 17.8699C16.3957 17.8699 16.7676 17.9297 17.093 18.1223C17.4051 18.2883 17.6308 18.5938 17.6308 18.9922C17.6308 19.3906 17.3984 19.7559 16.8937 19.9418V19.9551C17.4051 20.0945 17.7769 20.4797 17.7769 21.0508C17.7769 21.4559 17.591 21.7746 17.3121 21.9938C16.9867 22.2527 16.4488 22.3988 15.559 22.3988C15.0609 22.3988 14.6957 22.3656 14.4699 22.3324V17.9629H14.4766ZM15.4793 19.6629H15.8113C16.3426 19.6629 16.6215 19.4438 16.6215 19.1117C16.6215 18.7731 16.3625 18.5938 15.9043 18.5938C15.6851 18.5938 15.559 18.607 15.4726 18.6203V19.6629H15.4793ZM15.4793 21.6418C15.5789 21.6551 15.6984 21.6551 15.8711 21.6551C16.3293 21.6551 16.7277 21.4824 16.7277 21.0109C16.7277 20.5594 16.3226 20.3801 15.8246 20.3801H15.4793V21.6418Z" fill="#D2D4D8"/>
<path d="M19.4836 17.9031V22.359H18.4742V17.9031H19.4836Z" fill="#D2D4D8"/>
<path d="M7.83594 21.9074H9.93438V28.2359H7.83594V21.9074Z" fill="#FF7473"/>
<path d="M5.50508 24.0191H7.60352V28.2425H5.50508V24.0191Z" fill="#FFC952"/>
<path d="M3.17422 26.1242H5.27266V28.2359H3.17422V26.1242Z" fill="#47B8E0"/>
<path d="M30.7527 27.7445H23.6539V26.3766L26.018 23.6207L28.5945 24.0723L30.7527 21.9074V27.7445Z" fill="#47B8E0"/>
<path d="M30.7527 27.7445H23.6539V26.3766L26.018 25.0086L28.3355 25.5598L30.7527 23.634V27.7445Z" fill="#FF7473"/>
<path d="M30.7527 27.7445H23.6539V27.4059L26.018 26.3766L28.3887 26.7152L30.7527 26.0312V27.7445Z" fill="#FFC952"/>
<path d="M16.8672 8.73906L13.1484 10.8973C11.9598 8.83203 12.6637 6.18906 14.7223 4.99375C15.4062 4.59531 16.0769 4.41602 16.8672 4.41602V8.73906Z" fill="#FF7473"/>
<path d="M17.0465 8.89844L20.8383 6.70703C22.0469 8.79883 21.3297 11.475 19.2379 12.6836C17.1461 13.8922 14.5098 13.1484 13.3012 11.0566L17.0465 8.89844Z" fill="#FFC952"/>
<path d="M17.093 8.63279V4.40271C18.6269 4.40271 20.0879 5.3988 20.732 6.51443L17.093 8.63279Z" fill="#47B8E0"/>
</svg>
